<svg width="81" height="82" viewBox="0 0 81 82" fill="none" xmlns="http://www.w3.org/2000/svg">
<path d="M49.8781 27.6068C49.8781 32.8368 45.698 37.0608 40.5609 37.0608C35.4239 37.0608 31.2438 32.8368 31.2438 27.6068C31.2438 22.3767 35.4239 18.1527 40.5609 18.1527C45.698 18.1527 49.8781 22.3767 49.8781 27.6068Z" stroke="#222222" stroke-width="1.35768" stroke-linecap="round"/>
<path d="M45.5988 22.0319C46.3566 20.7014 47.4857 19.63 48.8422 18.9519C50.1985 18.2738 51.722 18.019 53.2204 18.219C54.7187 18.419 56.1261 19.065 57.2642 20.0767C58.4024 21.0885 59.2202 22.4209 59.6127 23.9059C60.0053 25.3911 59.9545 26.9609 59.4671 28.4167C58.9796 29.8723 58.0778 31.1473 56.8771 32.0813C55.6764 33.0152 54.2307 33.5664 52.7227 33.6666C51.2147 33.7668 49.7108 33.4115 48.4008 32.6449" stroke="#222222" stroke-width="1.35768"/>
<path d="M35.5231 22.0319C34.7653 20.7014 33.6361 19.63 32.2797 18.9519C30.9233 18.2738 29.3998 18.019 27.9015 18.219C26.4031 18.419 24.9958 19.065 23.8577 20.0767C22.7195 21.0885 21.9017 22.4209 21.5091 23.9059C21.1166 25.3911 21.1673 26.9609 21.6548 28.4167C22.1422 29.8723 23.0441 31.1473 24.2448 32.0813C25.4454 33.0152 26.8912 33.5664 28.3992 33.6666C29.9071 33.7668 31.4111 33.4115 32.7211 32.6449" stroke="#222222" stroke-width="1.35768"/>
<path d="M40.5609 42.8062C55.9961 42.8062 58.4309 57.1827 58.8149 61.7183C58.8782 62.4654 58.279 63.0719 57.5292 63.0719H23.5927C22.8429 63.0719 22.2437 62.4654 22.3069 61.7183C22.691 57.1827 25.1257 42.8062 40.5609 42.8062Z" stroke="#222222" stroke-width="1.35768" stroke-linecap="round"/>
<path d="M65.3345 54.8393L64.6659 54.9567V54.9567L65.3345 54.8393ZM44.1831 43.0966L43.6787 42.6423L42.8515 43.5607L44.0703 43.766L44.1831 43.0966ZM57.825 56.3169L57.1723 56.5032L57.3128 56.9957H57.825V56.3169ZM52.223 40.1076C56.6664 40.1076 59.5767 42.7188 61.5016 45.9389C63.4341 49.1719 64.3099 52.9291 64.6659 54.9567L66.0032 54.722C65.6366 52.6339 64.7252 48.6857 62.6669 45.2423C60.6009 41.7861 57.3168 38.7499 52.223 38.7499V40.1076ZM44.6875 43.5509C46.5092 41.5283 48.9395 40.1076 52.223 40.1076V38.7499C48.4873 38.7499 45.709 40.3881 43.6787 42.6423L44.6875 43.5509ZM44.0703 43.766C52.2745 45.148 55.7158 51.4002 57.1723 56.5032L58.4778 56.1306C56.9581 50.8059 53.2529 43.936 44.2959 42.4272L44.0703 43.766ZM64.0526 55.638H57.825V56.9957H64.0526V55.638ZM64.6659 54.9567C64.7265 55.3015 64.4644 55.638 64.0526 55.638V56.9957C65.2459 56.9957 66.2202 55.958 66.0032 54.722L64.6659 54.9567Z" fill="#222222"/>
<path d="M36.9389 43.0966L37.0516 43.766L38.2705 43.5607L37.4433 42.6423L36.9389 43.0966ZM15.7874 54.8393L15.1188 54.7219L15.7874 54.8393ZM23.2969 56.3169V56.9957H23.8091L23.9497 56.5032L23.2969 56.3169ZM28.899 40.1076C32.1826 40.1076 34.6128 41.5283 36.4345 43.5509L37.4433 42.6423C35.413 40.3881 32.6347 38.7499 28.899 38.7499V40.1076ZM16.456 54.9567C16.812 52.929 17.6878 49.1719 19.6204 45.9389C21.5453 42.7188 24.4556 40.1076 28.899 40.1076V38.7499C23.8052 38.7499 20.5211 41.7861 18.455 45.2423C16.3967 48.6857 15.4854 52.6339 15.1188 54.7219L16.456 54.9567ZM17.0693 55.638C16.6575 55.638 16.3954 55.3015 16.456 54.9567L15.1188 54.7219C14.9017 55.958 15.876 56.9957 17.0693 56.9957V55.638ZM23.2969 55.638H17.0693V56.9957H23.2969V55.638ZM23.9497 56.5032C25.4061 51.4002 28.8475 45.148 37.0516 43.766L36.8261 42.4272C27.8691 43.936 24.1639 50.8058 22.6442 56.1306L23.9497 56.5032Z" fill="#222222"/>
</svg>
