<svg width="65" height="64" viewBox="0 0 65 64" fill="none" xmlns="http://www.w3.org/2000/svg">
<path d="M33.1263 9.75345L51.1084 14.5224C51.6915 14.6771 52.0975 15.2048 52.0975 15.8081V37.0138C52.0975 39.6892 50.7569 42.1866 48.5271 43.665L32.8384 54.0669C32.3929 54.3622 31.8139 54.3622 31.3684 54.0669L15.6797 43.665C13.4499 42.1866 12.1093 39.6892 12.1093 37.0138V15.8081C12.1093 15.2048 12.5153 14.6771 13.0984 14.5224L31.0805 9.75345C31.7509 9.57567 32.4559 9.57567 33.1263 9.75345Z" stroke="#222222" stroke-width="1.33006" stroke-linecap="round"/>
<path d="M25.4387 30.6926L30.536 35.762C30.6657 35.891 30.8752 35.891 31.0049 35.762L40.101 26.7157" stroke="#222222" stroke-width="1.33006" stroke-linecap="round"/>
</svg>
