<svg width="225" height="52" viewBox="0 0 225 52" fill="none" xmlns="http://www.w3.org/2000/svg">
<g clip-path="url(#clip0_453_9618)">
<path d="M101.739 16.0874V19.422H110.811V35.9575H114.447V19.422H123.587V16.0874H101.739Z" fill="#4E4D4E"/>
<path d="M155.734 22.9119C155.734 19.1895 152.476 16.1909 148.437 16.1909H132.554V19.9133V29.6672V36.1126H136.186V29.6672H147.826L152.645 36.1126H157.057L151.695 28.9435C154.105 27.8061 155.734 25.5313 155.734 22.9119ZM136.186 19.8788V19.5341H148.437C150.439 19.5341 152.102 21.0507 152.102 22.9119C152.102 24.773 150.473 26.2895 148.437 26.2895H136.186V19.8788Z" fill="#4E4D4E"/>
<path d="M180.61 16.0874L180.576 16.1219H176.503V16.0874L176.469 16.1219L165.1 36.1125H169.207L178.539 19.6719L187.906 36.1125H192.013L180.61 16.1219V16.0874Z" fill="#4E4D4E"/>
<path d="M213.495 25.9105L224.593 16.1221H219.332L210.882 23.6013L202.432 16.1221H197.171L208.235 25.9105L196.764 36.1127H202.024L210.882 28.2542L219.74 36.1127H225L213.495 25.9105Z" fill="#4E4D4E"/>
<path d="M41.7391 20.7228V41.5874L46.6304 38.3456V17.4121L41.7391 20.7228Z" fill="#479B6C"/>
<path d="M7.11655 0.522461L0 2.81651L41.7845 20.7238L46.6304 17.4368L7.11655 0.522461Z" fill="#5DBD79"/>
<path d="M13.3214 11.4512L6.19568 13.7557L33.9522 25.6914L38.8044 22.4237L13.3214 11.4512Z" fill="#5DBD79"/>
<path d="M33.913 25.6325V46.5547L38.8043 43.3358V22.3794L33.913 25.6325Z" fill="#479B6C"/>
<path d="M26.413 30.9375V51.5224L31.3043 48.2975V27.6782L26.413 30.9375Z" fill="#479B6C"/>
<path d="M19.216 22.7109L12.0652 24.9658L26.435 30.9902L31.3043 27.7929L19.216 22.7109Z" fill="#5DBD79"/>
<path d="M54.7826 20.7228V41.5874L49.8913 38.3456V17.4121L54.7826 20.7228Z" fill="#479B6C"/>
<path d="M89.4052 0.522461L49.8913 17.4368L54.7373 20.7238L96.5217 2.81651L89.4052 0.522461Z" fill="#5DBD79"/>
<path d="M83.2076 11.4512L90.3261 13.7557L62.5986 25.6914L57.7174 22.4237L83.2076 11.4512Z" fill="#5DBD79"/>
<path d="M62.6087 25.6325V46.5547L57.7174 43.3358V22.3794L62.6087 25.6325Z" fill="#479B6C"/>
<path d="M70.1087 30.9375V51.5224L65.2174 48.2975V27.6782L70.1087 30.9375Z" fill="#479B6C"/>
<path d="M77.1007 22.7109L84.1304 24.9658L70.0376 30.9902L65.2174 27.7929L77.1007 22.7109Z" fill="#5DBD79"/>
</g>
<defs>
<clipPath id="clip0_453_9618">
<rect width="225" height="51" fill="white" transform="translate(0 0.522461)"/>
</clipPath>
</defs>
</svg>
