<svg width="264" height="186" viewBox="0 0 264 186" fill="none" xmlns="http://www.w3.org/2000/svg">
<rect x="38.5" y="42.5" width="225" height="143" stroke="black"/>
<g clip-path="url(#clip0_402_9648)">
<path d="M50.1683 184.072C50.1533 184.006 48.6965 177.363 51.6716 171.845C54.6466 166.328 60.9972 163.895 61.061 163.871L61.3512 163.762L61.4198 164.065C61.4348 164.131 62.8916 170.774 59.9165 176.291C56.9416 181.808 50.5909 184.241 50.5271 184.266L50.2368 184.374L50.1683 184.072ZM60.9532 164.5C59.6811 165.048 54.6606 167.442 52.148 172.102C49.635 176.762 50.3932 182.273 50.6349 183.636C51.9065 183.09 56.925 180.699 59.4401 176.034C61.953 171.374 61.1951 165.864 60.9532 164.5V164.5Z" fill="#F1F1F1"/>
<path d="M57.6431 174.356C52.2967 177.572 50.2377 183.961 50.2377 183.961C50.2377 183.961 56.8468 185.135 62.1931 181.918C67.5394 178.702 69.5985 172.313 69.5985 172.313C69.5985 172.313 62.9894 171.139 57.6431 174.356Z" fill="#F1F1F1"/>
<path d="M138.607 122.792C138.688 122.371 138.676 121.938 138.572 121.522C138.468 121.106 138.274 120.718 138.003 120.386C137.733 120.053 137.393 119.784 137.008 119.596C136.622 119.409 136.2 119.309 135.771 119.303L133.295 113.077L129.145 113.658L132.765 122.402C132.802 123.123 133.102 123.805 133.608 124.319C134.115 124.833 134.792 125.144 135.512 125.192C136.232 125.24 136.945 125.022 137.515 124.58C138.086 124.138 138.474 123.502 138.607 122.792V122.792Z" fill="#9F616A"/>
<path d="M130.96 120.604L129.674 117.538L121.659 102.282L122.095 74.0546L122.179 74.0435C127.307 73.3659 130.777 96.9943 130.922 98.0006L135.986 115.318L137.191 119.136L130.96 120.604Z" fill="#19944F"/>
<path d="M118.646 180.127L122.542 180.127L124.396 165.097L118.645 165.097L118.646 180.127Z" fill="#9F616A"/>
<path d="M117.652 178.855L125.325 178.854H125.326C126.623 178.855 127.866 179.37 128.784 180.287C129.701 181.204 130.216 182.448 130.216 183.745V183.904L117.652 183.904L117.652 178.855Z" fill="#2F2E41"/>
<path d="M82.8178 174.19L86.015 176.418L96.1289 165.147L91.4104 161.859L82.8178 174.19Z" fill="#9F616A"/>
<path d="M82.7298 172.578L89.0257 176.966L89.026 176.966C90.09 177.707 90.8159 178.841 91.044 180.118C91.2721 181.395 90.9836 182.71 90.2422 183.774L90.1513 183.904L79.843 176.721L82.7298 172.578Z" fill="#2F2E41"/>
<path d="M116.504 176.594L116.336 148.4L113.884 130.671L109.313 146.262L109.304 146.274L92.7392 170.323L86.2937 167.057L86.329 166.973C86.7229 166.036 96.0047 144.032 98.4995 144.032C98.7174 144.047 98.9357 144.009 99.1357 143.921C99.3356 143.833 99.5112 143.698 99.6473 143.527C100.38 142.55 99.7832 140.475 99.7771 140.454C99.0629 137.492 100.859 136.484 101.216 136.316L102.178 116.458L102.278 116.464L128.357 118.294L127.263 143.121L124.909 175.651L124.828 175.66L116.504 176.594Z" fill="#2F2E41"/>
<path d="M128.755 122.694L128.642 122.685L100.595 120.424L100.665 111.144L102.037 86.9133L102.045 86.8965L107.636 74.7598L111.599 72.9653L117.38 72.661L117.394 72.6645L122.671 73.9718L128.16 113.375L128.755 122.694Z" fill="#19944F"/>
<path d="M118.286 69.5506C121.865 67.5944 123.18 63.1076 121.224 59.529C119.268 55.9504 114.781 54.6353 111.202 56.5915C107.624 58.5477 106.308 63.0345 108.265 66.6131C110.221 70.1916 114.708 71.5068 118.286 69.5506Z" fill="#9F616A"/>
<path d="M107.318 64.9245V62.0474C107.318 62.0474 104.997 59.3147 107.55 58.6263C107.55 58.6263 108.246 51.7426 114.279 54.955C114.279 54.955 122.632 53.5782 121.703 58.3968C121.703 58.3968 123.792 57.1388 123.096 60.3512L121.749 65.5259C121.749 65.5259 122.399 62.1077 120.311 61.6487L119.151 60.9604C119.151 60.9604 115.903 64.1728 111.03 60.272C111.03 60.272 108.942 59.7736 109.174 61.8387C109.406 63.9038 107.318 64.9245 107.318 64.9245Z" fill="#2F2E41"/>
<path d="M113.975 115.764C113.98 115.335 113.891 114.911 113.714 114.52C113.537 114.13 113.276 113.783 112.95 113.505C112.625 113.226 112.242 113.022 111.829 112.907C111.416 112.792 110.983 112.769 110.56 112.84L107.007 107.159L103.028 108.476L108.158 116.428C108.324 117.131 108.742 117.748 109.332 118.163C109.923 118.578 110.645 118.762 111.362 118.68C112.079 118.598 112.741 118.256 113.223 117.718C113.705 117.181 113.972 116.486 113.975 115.764V115.764Z" fill="#9F616A"/>
<path d="M104.799 113.973L98.3711 100.923L98.3768 100.891C98.4027 100.747 100.99 86.3803 102.969 81.0996C104.96 75.7855 107.686 74.7185 107.801 74.6757L107.859 74.6543L110.303 76.9987L106.917 99.5974L110.567 110.497L104.799 113.973Z" fill="#19944F"/>
<path d="M263.579 49H251.134V61.4456H263.579V49Z" fill="#F1F1F1"/>
<path d="M166.179 97.4294H153.733V109.875H166.179V97.4294Z" fill="#F1F1F1"/>
<path d="M160.719 104.421H259.113V54.6096H160.719V104.421Z" fill="white"/>
<path d="M259.925 105.233H159.907V53.7979H259.925V105.233ZM161.53 103.61H258.301V55.4212H161.53V103.61Z" fill="#E5E5E5"/>
<path d="M248.233 72.0828H172.529V74.5933H248.233V72.0828Z" fill="#E5E5E5"/>
<path d="M248.233 78.171H172.529V80.6816H248.233V78.171Z" fill="#E5E5E5"/>
<path d="M248.233 87.1605H234.164V89.3392H248.233V87.1605Z" fill="#19944F"/>
<path d="M141.773 184.363H38.6915C38.6197 184.363 38.5509 184.335 38.5001 184.284C38.4494 184.233 38.4209 184.164 38.4209 184.093C38.4209 184.021 38.4494 183.952 38.5001 183.901C38.5509 183.851 38.6197 183.822 38.6915 183.822H141.773C141.845 183.822 141.914 183.851 141.965 183.901C142.015 183.952 142.044 184.021 142.044 184.093C142.044 184.164 142.015 184.233 141.965 184.284C141.914 184.335 141.845 184.363 141.773 184.363Z" fill="#CBCBCB"/>
</g>
<ellipse cx="29.011" cy="30" rx="29.011" ry="30" fill="#19944F"/>
<path d="M32.9806 16.543V45H26.8673V23.4961L20.2658 25.5078V20.7812L32.3751 16.543H32.9806Z" fill="white"/>
<defs>
<clipPath id="clip0_402_9648">
<rect width="225.158" height="135.374" fill="white" transform="translate(38.4209 49)"/>
</clipPath>
</defs>
</svg>
