<svg width="30" height="30" viewBox="0 0 30 30" fill="none" xmlns="http://www.w3.org/2000/svg">
<mask id="mask0_144_9860" style="mask-type:alpha" maskUnits="userSpaceOnUse" x="0" y="0" width="30" height="30">
<path fill-rule="evenodd" clip-rule="evenodd" d="M4.84835 7.34835C3.75 8.4467 3.75 10.2145 3.75 13.75V16.25C3.75 19.7855 3.75 21.5533 4.84835 22.6517C5.9467 23.75 7.71447 23.75 11.25 23.75H18.75C22.2855 23.75 24.0533 23.75 25.1517 22.6517C26.25 21.5533 26.25 19.7855 26.25 16.25V13.75C26.25 10.2145 26.25 8.4467 25.1517 7.34835C24.0533 6.25 22.2855 6.25 18.75 6.25H11.25C7.71447 6.25 5.9467 6.25 4.84835 7.34835ZM23.1934 12.2901C23.7678 11.9071 23.923 11.131 23.5401 10.5566C23.1571 9.98221 22.381 9.827 21.8066 10.2099L15 14.7477L8.19338 10.2099C7.61896 9.827 6.84288 9.98221 6.45994 10.5566C6.077 11.131 6.23221 11.9071 6.80662 12.2901L13.6133 16.8278C14.453 17.3876 15.547 17.3876 16.3868 16.8278L23.1934 12.2901Z" fill="#222222"/>
</mask>
<g mask="url(#mask0_144_9860)">
<rect x="-5" y="-1.25" width="41.25" height="36.25" fill="white"/>
</g>
</svg>
