<svg width="220" height="64" viewBox="0 0 220 64" fill="none" xmlns="http://www.w3.org/2000/svg">
<rect x="0.736572" width="218.527" height="63.0588" rx="20" fill="#19944F"/>
<path d="M76.0852 34.5352C76.0852 34.2305 76.0384 33.957 75.9446 33.7148C75.8587 33.4648 75.6946 33.2383 75.4524 33.0352C75.2102 32.8242 74.8704 32.6172 74.4329 32.4141C73.9954 32.2109 73.429 32 72.7337 31.7812C71.9602 31.5312 71.2259 31.25 70.5306 30.9375C69.8431 30.625 69.2337 30.2617 68.7024 29.8477C68.179 29.4258 67.7649 28.9375 67.4602 28.3828C67.1634 27.8281 67.0149 27.1836 67.0149 26.4492C67.0149 25.7383 67.1712 25.0938 67.4837 24.5156C67.7962 23.9297 68.2337 23.4297 68.7962 23.0156C69.3587 22.5938 70.0227 22.2695 70.7884 22.043C71.5618 21.8164 72.4095 21.7031 73.3313 21.7031C74.5891 21.7031 75.6868 21.9297 76.6243 22.3828C77.5618 22.8359 78.2884 23.457 78.804 24.2461C79.3274 25.0352 79.5891 25.9375 79.5891 26.9531H76.097C76.097 26.4531 75.9915 26.0156 75.7806 25.6406C75.5774 25.2578 75.2649 24.957 74.8431 24.7383C74.429 24.5195 73.9056 24.4102 73.2727 24.4102C72.6634 24.4102 72.1556 24.5039 71.7493 24.6914C71.3431 24.8711 71.0384 25.1172 70.8352 25.4297C70.6321 25.7344 70.5306 26.0781 70.5306 26.4609C70.5306 26.75 70.6009 27.0117 70.7415 27.2461C70.8899 27.4805 71.1087 27.6992 71.3977 27.9023C71.6868 28.1055 72.0423 28.2969 72.4641 28.4766C72.886 28.6562 73.3743 28.832 73.929 29.0039C74.8587 29.2852 75.6751 29.6016 76.3782 29.9531C77.0891 30.3047 77.6829 30.6992 78.1595 31.1367C78.636 31.5742 78.9954 32.0703 79.2376 32.625C79.4798 33.1797 79.6009 33.8086 79.6009 34.5117C79.6009 35.2539 79.4563 35.918 79.1673 36.5039C78.8782 37.0898 78.4602 37.5859 77.9134 37.9922C77.3665 38.3984 76.7141 38.707 75.9563 38.918C75.1985 39.1289 74.3509 39.2344 73.4134 39.2344C72.5696 39.2344 71.7376 39.125 70.9173 38.9062C70.097 38.6797 69.3509 38.3398 68.679 37.8867C68.0149 37.4336 67.4837 36.8555 67.0852 36.1523C66.6868 35.4492 66.4876 34.6172 66.4876 33.6562H70.0149C70.0149 34.1875 70.097 34.6367 70.261 35.0039C70.4251 35.3711 70.6556 35.668 70.9524 35.8945C71.2571 36.1211 71.6165 36.2852 72.0306 36.3867C72.4524 36.4883 72.9134 36.5391 73.4134 36.5391C74.0227 36.5391 74.5227 36.4531 74.9134 36.2812C75.3118 36.1094 75.6048 35.8711 75.7923 35.5664C75.9876 35.2617 76.0852 34.918 76.0852 34.5352ZM91.4134 21.9375H94.9173V33.2109C94.9173 34.5234 94.636 35.6289 94.0735 36.5273C93.5188 37.4258 92.7493 38.1016 91.7649 38.5547C90.7884 39.0078 89.6634 39.2344 88.3899 39.2344C87.1165 39.2344 85.9837 39.0078 84.9915 38.5547C84.0071 38.1016 83.2337 37.4258 82.6712 36.5273C82.1165 35.6289 81.8391 34.5234 81.8391 33.2109V21.9375H85.3548V33.2109C85.3548 33.9766 85.4759 34.6016 85.7181 35.0859C85.9602 35.5703 86.3079 35.9258 86.761 36.1523C87.222 36.3789 87.7649 36.4922 88.3899 36.4922C89.0306 36.4922 89.5735 36.3789 90.0188 36.1523C90.472 35.9258 90.8157 35.5703 91.0501 35.0859C91.2923 34.6016 91.4134 33.9766 91.4134 33.2109V21.9375ZM104.491 31.5117H100.109L100.085 29.0977H103.765C104.413 29.0977 104.945 29.0156 105.359 28.8516C105.773 28.6797 106.081 28.4336 106.284 28.1133C106.495 27.7852 106.601 27.3867 106.601 26.918C106.601 26.3867 106.499 25.957 106.296 25.6289C106.101 25.3008 105.792 25.0625 105.37 24.9141C104.956 24.7656 104.421 24.6914 103.765 24.6914H101.327V39H97.8118V21.9375H103.765C104.757 21.9375 105.644 22.0312 106.425 22.2188C107.214 22.4062 107.882 22.6914 108.429 23.0742C108.976 23.457 109.394 23.9414 109.683 24.5273C109.972 25.1055 110.116 25.793 110.116 26.5898C110.116 27.293 109.956 27.9414 109.636 28.5352C109.324 29.1289 108.827 29.6133 108.148 29.9883C107.476 30.3633 106.597 30.5703 105.511 30.6094L104.491 31.5117ZM104.339 39H99.1477L100.519 36.2578H104.339C104.956 36.2578 105.46 36.1602 105.851 35.9648C106.241 35.7617 106.531 35.4883 106.718 35.1445C106.906 34.8008 106.999 34.4062 106.999 33.9609C106.999 33.4609 106.913 33.0273 106.741 32.6602C106.577 32.293 106.312 32.0117 105.945 31.8164C105.577 31.6133 105.093 31.5117 104.491 31.5117H101.105L101.128 29.0977H105.347L106.156 30.0469C107.195 30.0312 108.031 30.2148 108.663 30.5977C109.304 30.9727 109.769 31.4609 110.058 32.0625C110.355 32.6641 110.503 33.3086 110.503 33.9961C110.503 35.0898 110.265 36.0117 109.788 36.7617C109.312 37.5039 108.613 38.0625 107.691 38.4375C106.777 38.8125 105.659 39 104.339 39ZM114.745 21.9375H117.722L122.105 34.4648L126.488 21.9375H129.464L123.3 39H120.909L114.745 21.9375ZM113.14 21.9375H116.105L116.644 34.1484V39H113.14V21.9375ZM128.105 21.9375H131.081V39H127.566V34.1484L128.105 21.9375ZM137.902 21.9375V39H134.398V21.9375H137.902ZM148.472 21.9375V39H144.968V21.9375H148.472ZM153.722 21.9375V24.6914H139.8V21.9375H153.722Z" fill="white"/>
</svg>
