<svg width="408" height="396" viewBox="0 0 408 396" fill="none" xmlns="http://www.w3.org/2000/svg">
<g clip-path="url(#clip0_105_9714)">
<path d="M286.328 394.663C285.901 395.113 285.458 395.556 285.008 396H233.774C233.353 395.568 232.937 395.124 232.522 394.663C232.505 394.647 232.488 394.624 232.471 394.607C226.905 388.441 223.4 379.478 221.216 370.026C221.075 369.453 220.952 368.874 220.828 368.29C220.255 365.634 219.789 362.949 219.407 360.287C219.34 359.827 219.272 359.366 219.216 358.906C218.699 355.081 218.351 351.319 218.126 347.786C218.098 347.331 218.07 346.888 218.042 346.444C217.631 339.411 217.627 332.361 218.031 325.327C218.031 325.327 218.098 325.327 218.228 325.333C218.604 325.35 219.508 325.389 220.839 325.468C224.507 325.692 231.427 326.254 239.565 327.579C240.009 327.653 240.458 327.731 240.907 327.81C247.791 328.947 254.581 330.591 261.222 332.729C261.638 332.87 262.048 333.01 262.464 333.151L262.469 333.179L267.563 358.737L269.675 335.987C271.355 336.745 272.989 337.554 274.556 338.418C274.994 338.66 275.421 338.901 275.842 339.149C279.425 341.178 282.677 343.743 285.486 346.753C302.195 365.269 298.617 381.819 286.328 394.663Z" fill="#F2F2F2"/>
<path d="M264.918 362.254L265.806 363.238C276.073 374.728 282.2 385.392 284.087 395.092C284.117 395.233 284.138 395.373 284.168 395.514L283.511 395.639L282.878 395.75C280.952 385.175 273.779 374.243 264.827 364.22C264.541 363.894 264.251 363.563 263.952 363.241C260.125 359.031 256.01 354.992 251.849 351.216C251.53 350.921 251.201 350.626 250.872 350.33C245.355 345.374 239.804 340.89 234.854 337.111C234.505 336.842 234.151 336.578 233.802 336.318C225.397 329.956 218.875 325.738 217.422 324.814C217.246 324.698 217.147 324.637 217.125 324.622L217.469 324.073L217.469 324.064L217.818 323.51C217.841 323.525 218.174 323.728 218.777 324.121C221.039 325.579 227.121 329.593 234.686 335.3C235.026 335.559 235.379 335.823 235.728 336.092C239.749 339.155 244.146 342.664 248.587 346.506C249.704 347.469 250.793 348.43 251.854 349.391C252.188 349.682 252.517 349.977 252.836 350.272C257.334 354.354 261.362 358.348 264.918 362.254Z" fill="white"/>
<path d="M240.048 326.49C239.896 326.855 239.733 327.22 239.565 327.58C238.282 330.356 236.641 332.952 234.684 335.302C234.398 335.639 234.106 335.981 233.802 336.318C232.982 337.222 232.11 338.097 231.185 338.941C227.401 342.366 222.916 344.927 218.042 346.444C217.885 346.494 217.733 346.545 217.576 346.59C217.604 347.034 217.632 347.472 217.66 347.927C217.818 347.882 217.969 347.837 218.126 347.786C223.298 346.227 228.058 343.538 232.061 339.912C233.04 339.028 233.972 338.092 234.853 337.11C235.156 336.779 235.448 336.436 235.729 336.093C237.822 333.579 239.564 330.792 240.907 327.81C241.065 327.45 241.222 327.091 241.373 326.726C240.924 326.647 240.48 326.569 240.048 326.49Z" fill="white"/>
<path d="M261.453 331.735C261.385 332.067 261.306 332.398 261.222 332.729C259.7 339.043 256.457 344.81 251.854 349.392C251.534 349.712 251.208 350.027 250.871 350.33C250.775 350.426 250.669 350.527 250.568 350.617C246.381 354.396 241.351 357.121 235.897 358.562C230.444 360.004 224.724 360.122 219.216 358.906C219.087 358.883 218.952 358.85 218.823 358.822C218.89 359.282 218.952 359.748 219.025 360.209C219.154 360.237 219.278 360.265 219.407 360.287C225.055 361.456 230.899 361.277 236.465 359.766C242.031 358.254 247.163 355.453 251.444 351.588C251.579 351.465 251.719 351.347 251.848 351.218C252.185 350.903 252.511 350.589 252.837 350.274C257.547 345.561 260.878 339.649 262.469 333.179C262.553 332.842 262.632 332.505 262.705 332.168C262.289 332.022 261.874 331.876 261.453 331.735Z" fill="white"/>
<path d="M274.556 337.469C274.562 337.784 274.562 338.104 274.556 338.419C274.462 347.294 271.02 355.807 264.918 362.253C264.603 362.59 264.278 362.916 263.952 363.242C263.598 363.584 263.244 363.927 262.879 364.252C257.229 369.344 250.092 372.485 242.52 373.212C234.949 373.94 227.344 372.214 220.828 368.29C220.716 368.232 220.608 368.168 220.502 368.099C220.637 368.695 220.772 369.279 220.918 369.863C221.019 369.919 221.114 369.975 221.216 370.026C227.92 373.764 235.627 375.311 243.255 374.451C250.883 373.591 258.052 370.367 263.756 365.23C264.121 364.898 264.486 364.567 264.828 364.219C265.165 363.899 265.485 363.573 265.805 363.236C271.994 356.71 275.566 348.137 275.842 339.149C275.854 338.845 275.859 338.542 275.859 338.239C275.432 337.975 274.994 337.722 274.556 337.469Z" fill="white"/>
<path d="M161.009 92.9897H62.2774C61.4558 92.9888 60.6681 92.6621 60.0871 92.0811C59.5062 91.5002 59.1794 90.7126 59.1785 89.891V14.9306C59.1794 14.109 59.5061 13.3213 60.0871 12.7404C60.6681 12.1594 61.4558 11.8326 62.2774 11.8316H183.465C184.287 11.8326 185.074 12.1594 185.655 12.7404C186.236 13.3213 186.563 14.109 186.564 14.9306V67.4367C186.556 74.2114 183.861 80.7065 179.071 85.497C174.28 90.2874 167.784 92.9821 161.009 92.9897Z" fill="white"/>
<path d="M161.009 93.2705H62.2775C61.3815 93.2695 60.5224 92.9131 59.8888 92.2795C59.2552 91.646 58.8988 90.787 58.8977 89.891V14.9306C58.8987 14.0346 59.2551 13.1755 59.8887 12.5419C60.5223 11.9083 61.3814 11.5519 62.2775 11.5508H183.465C184.361 11.5518 185.22 11.9082 185.854 12.5419C186.488 13.1755 186.844 14.0345 186.845 14.9306V67.4366C186.837 74.2858 184.113 80.8523 179.269 85.6954C174.425 90.5385 167.858 93.2627 161.009 93.2705ZM62.2775 12.674C61.6792 12.6747 61.1057 12.9127 60.6826 13.3358C60.2596 13.7588 60.0217 14.3323 60.021 14.9306V89.891C60.0217 90.4892 60.2596 91.0627 60.6827 91.4857C61.1057 91.9087 61.6793 92.1467 62.2775 92.1473H161.009C167.561 92.1399 173.842 89.5341 178.475 84.9016C183.108 80.269 185.714 73.9881 185.722 67.4366V14.9306C185.721 14.3323 185.483 13.7588 185.06 13.3358C184.637 12.9127 184.063 12.6747 183.465 12.674H62.2775Z" fill="#CCCCCC"/>
<path d="M159.509 37.1471H86.2332C85.5605 37.1471 84.9153 36.8799 84.4396 36.4043C83.9639 35.9287 83.6967 35.2835 83.6967 34.6109C83.6967 33.9382 83.9639 33.2931 84.4396 32.8175C84.9153 32.3418 85.5605 32.0746 86.2332 32.0746H159.509C160.181 32.0756 160.826 32.3433 161.3 32.8188C161.775 33.2943 162.042 33.9389 162.042 34.6109C162.042 35.2829 161.775 35.9274 161.3 36.403C160.826 36.8785 160.181 37.1461 159.509 37.1471Z" fill="#CCCCCC"/>
<path d="M159.509 54.6191H86.2332C85.5605 54.6191 84.9153 54.3519 84.4396 53.8763C83.964 53.4006 83.6967 52.7555 83.6967 52.0829C83.6967 51.4102 83.964 50.7651 84.4396 50.2895C84.9153 49.8138 85.5605 49.5466 86.2332 49.5466H159.509C160.182 49.5466 160.827 49.8138 161.303 50.2895C161.779 50.7651 162.046 51.4102 162.046 52.0829C162.046 52.7555 161.779 53.4006 161.303 53.8763C160.827 54.3519 160.182 54.6191 159.509 54.6191Z" fill="#CCCCCC"/>
<path d="M159.509 72.5905H86.2332C85.5605 72.5905 84.9153 72.3233 84.4396 71.8477C83.964 71.372 83.6967 70.7269 83.6967 70.0543C83.6967 69.3816 83.964 68.7365 84.4396 68.2609C84.9153 67.7852 85.5605 67.518 86.2332 67.518H159.509C160.182 67.518 160.827 67.7852 161.303 68.2609C161.779 68.7365 162.046 69.3816 162.046 70.0543C162.046 70.7269 161.779 71.372 161.303 71.8477C160.827 72.3233 160.182 72.5905 159.509 72.5905Z" fill="#CCCCCC"/>
<path d="M182.555 30.2914C190.921 30.2914 197.702 23.5104 197.702 15.1457C197.702 6.78095 190.921 0 182.555 0C174.19 0 167.408 6.78095 167.408 15.1457C167.408 23.5104 174.19 30.2914 182.555 30.2914Z" fill="#19944F"/>
<path d="M180.489 23.0283C180.227 23.0283 179.969 22.9674 179.735 22.8504C179.501 22.7334 179.298 22.5635 179.141 22.3543L175.009 16.8449C174.876 16.6679 174.779 16.4665 174.724 16.2522C174.67 16.0378 174.657 15.8148 174.689 15.5958C174.72 15.3768 174.794 15.1661 174.907 14.9757C175.02 14.7853 175.169 14.619 175.346 14.4863C175.523 14.3536 175.724 14.257 175.939 14.2021C176.153 14.1472 176.376 14.135 176.595 14.1663C176.814 14.1976 177.025 14.2717 177.215 14.3845C177.405 14.4972 177.572 14.6463 177.705 14.8233L180.408 18.4274L187.352 8.01301C187.6 7.64122 187.985 7.38313 188.423 7.2955C188.861 7.20787 189.316 7.29788 189.688 7.54574C190.06 7.79359 190.318 8.17899 190.406 8.61715C190.493 9.0553 190.403 9.51032 190.156 9.88211L181.891 22.278C181.741 22.5022 181.54 22.6873 181.305 22.8177C181.069 22.9482 180.805 23.0202 180.536 23.0278C180.52 23.0281 180.504 23.0283 180.489 23.0283Z" fill="white"/>
<path d="M124.567 158.096H25.8363C19.0609 158.089 12.5652 155.394 7.77432 150.604C2.98342 145.813 0.288528 139.318 0.280884 132.543V80.0369C0.281848 79.2153 0.608688 78.4276 1.1897 77.8466C1.77072 77.2657 2.55846 76.9389 3.38014 76.9379H124.567C125.389 76.9389 126.177 77.2657 126.758 77.8466C127.339 78.4276 127.666 79.2153 127.667 80.0369V154.997C127.666 155.819 127.339 156.607 126.758 157.188C126.177 157.769 125.389 158.095 124.567 158.096Z" fill="white"/>
<path d="M124.567 158.377H25.8362C18.9864 158.369 12.4194 155.645 7.57585 150.802C2.73231 145.959 0.00778802 139.392 0 132.543V80.0369C0.00101532 79.1408 0.357458 78.2817 0.991126 77.6481C1.62479 77.0145 2.48394 76.6581 3.38009 76.6571H124.567C125.463 76.6581 126.323 77.0145 126.956 77.6481C127.59 78.2817 127.946 79.1408 127.947 80.0369V154.997C127.946 155.893 127.59 156.752 126.956 157.386C126.323 158.02 125.463 158.376 124.567 158.377ZM3.38009 77.7803C2.78177 77.781 2.20817 78.019 1.7851 78.442C1.36203 78.8651 1.12403 79.4386 1.12331 80.0369V132.543C1.13071 139.095 3.73676 145.376 8.36972 150.008C13.0027 154.641 19.2842 157.246 25.8362 157.254H124.567C125.166 157.253 125.739 157.015 126.162 156.592C126.585 156.169 126.823 155.596 126.824 154.997V80.0369C126.823 79.4386 126.585 78.8651 126.162 78.442C125.739 78.019 125.166 77.781 124.567 77.7803H3.38009Z" fill="#CCCCCC"/>
<path d="M100.612 102.253H27.3357C26.663 102.253 26.0178 101.986 25.5421 101.511C25.0664 101.035 24.7992 100.39 24.7992 99.7172C24.7992 99.0446 25.0664 98.3995 25.5421 97.9238C26.0178 97.4482 26.663 97.181 27.3357 97.181H100.612C101.285 97.181 101.93 97.4482 102.405 97.9238C102.881 98.3995 103.148 99.0446 103.148 99.7172C103.148 100.39 102.881 101.035 102.405 101.511C101.93 101.986 101.285 102.253 100.612 102.253Z" fill="#CCCCCC"/>
<path d="M100.612 119.725H27.3357C26.663 119.725 26.0178 119.458 25.5421 118.983C25.0664 118.507 24.7992 117.862 24.7992 117.189C24.7992 116.517 25.0664 115.871 25.5421 115.396C26.0178 114.92 26.663 114.653 27.3357 114.653H100.612C101.285 114.653 101.93 114.92 102.405 115.396C102.881 115.871 103.148 116.517 103.148 117.189C103.148 117.862 102.881 118.507 102.405 118.983C101.93 119.458 101.285 119.725 100.612 119.725Z" fill="#CCCCCC"/>
<path d="M100.612 137.697H27.3357C26.663 137.697 26.0178 137.43 25.5421 136.954C25.0664 136.478 24.7992 135.833 24.7992 135.161C24.7992 134.488 25.0664 133.843 25.5421 133.367C26.0178 132.892 26.663 132.624 27.3357 132.624H100.612C101.285 132.624 101.93 132.892 102.405 133.367C102.881 133.843 103.148 134.488 103.148 135.161C103.148 135.833 102.881 136.478 102.405 136.954C101.93 137.43 101.285 137.697 100.612 137.697Z" fill="#CCCCCC"/>
<path d="M124.705 95.9993C133.07 95.9993 139.852 89.2183 139.852 80.8536C139.852 72.4889 133.07 65.7079 124.705 65.7079C116.339 65.7079 109.557 72.4889 109.557 80.8536C109.557 89.2183 116.339 95.9993 124.705 95.9993Z" fill="#19944F"/>
<path d="M122.638 88.7362C122.377 88.7362 122.119 88.6753 121.885 88.5583C121.651 88.4413 121.447 88.2715 121.29 88.0622L117.158 82.5528C117.025 82.3758 116.929 82.1744 116.874 81.9601C116.819 81.7458 116.807 81.5227 116.838 81.3037C116.869 81.0847 116.943 80.874 117.056 80.6836C117.169 80.4933 117.318 80.327 117.495 80.1942C117.672 80.0615 117.874 79.9649 118.088 79.91C118.302 79.8551 118.525 79.843 118.744 79.8743C118.963 79.9055 119.174 79.9797 119.364 80.0924C119.555 80.2051 119.721 80.3542 119.854 80.5312L122.557 84.1353L129.501 73.7209C129.749 73.3492 130.134 73.0911 130.573 73.0034C131.011 72.9158 131.466 73.0058 131.838 73.2537C132.209 73.5015 132.468 73.8869 132.555 74.3251C132.643 74.7632 132.553 75.2183 132.305 75.59L124.04 87.986C123.891 88.2101 123.69 88.3952 123.454 88.5257C123.218 88.6561 122.954 88.7282 122.685 88.7357C122.669 88.736 122.654 88.7362 122.638 88.7362Z" fill="white"/>
<path d="M247.584 227.967H109.437C102.661 227.96 96.1656 225.265 91.3747 220.475C86.5838 215.684 83.8889 209.189 83.8812 202.414V125.186C83.8824 124.127 84.3037 123.111 85.0527 122.363C85.8016 121.614 86.817 121.192 87.8762 121.191H247.584C248.643 121.192 249.658 121.614 250.407 122.363C251.156 123.111 251.577 124.127 251.578 125.186V223.973C251.577 225.032 251.156 226.047 250.407 226.796C249.658 227.545 248.643 227.966 247.584 227.967Z" fill="white"/>
<path d="M247.584 228.248H109.437C102.587 228.24 96.0198 225.516 91.1763 220.673C86.3327 215.83 83.6082 209.264 83.6004 202.414V125.186C83.6017 124.052 84.0526 122.966 84.8542 122.164C85.6557 121.363 86.7426 120.912 87.8762 120.91H247.584C248.717 120.912 249.804 121.363 250.606 122.164C251.407 122.966 251.858 124.052 251.859 125.186V223.973C251.858 225.106 251.407 226.193 250.606 226.994C249.804 227.796 248.717 228.247 247.584 228.248ZM87.8762 122.034C87.0404 122.035 86.2391 122.367 85.6481 122.958C85.0571 123.549 84.7247 124.35 84.7237 125.186V202.414C84.7311 208.966 87.3372 215.247 91.9701 219.879C96.6031 224.512 102.885 227.118 109.437 227.125H247.584C248.42 227.124 249.221 226.792 249.812 226.201C250.403 225.61 250.735 224.808 250.736 223.973V125.186C250.735 124.35 250.403 123.549 249.812 122.958C249.221 122.367 248.42 122.035 247.584 122.034H87.8762Z" fill="#CCCCCC"/>
<path d="M216.014 154.464H119.446C119.007 154.465 118.572 154.379 118.166 154.211C117.76 154.043 117.391 153.797 117.08 153.487C116.769 153.176 116.522 152.808 116.354 152.402C116.186 151.996 116.099 151.561 116.099 151.122C116.099 150.682 116.186 150.247 116.354 149.842C116.522 149.436 116.769 149.067 117.08 148.757C117.391 148.446 117.76 148.2 118.166 148.032C118.572 147.865 119.007 147.779 119.446 147.779H216.014C216.453 147.779 216.888 147.865 217.294 148.032C217.7 148.2 218.069 148.446 218.38 148.757C218.691 149.067 218.938 149.436 219.106 149.842C219.274 150.247 219.361 150.682 219.361 151.122C219.361 151.561 219.274 151.996 219.106 152.402C218.938 152.808 218.691 153.176 218.38 153.487C218.069 153.797 217.7 154.043 217.294 154.211C216.888 154.379 216.453 154.465 216.014 154.464Z" fill="#CCCCCC"/>
<path d="M216.014 177.49H119.446C119.007 177.49 118.572 177.404 118.166 177.236C117.76 177.069 117.391 176.823 117.08 176.512C116.769 176.202 116.522 175.833 116.354 175.427C116.186 175.021 116.099 174.587 116.099 174.147C116.099 173.708 116.186 173.273 116.354 172.867C116.522 172.461 116.769 172.093 117.08 171.782C117.391 171.472 117.76 171.226 118.166 171.058C118.572 170.89 119.007 170.804 119.446 170.805H216.014C216.9 170.805 217.75 171.157 218.377 171.784C219.004 172.411 219.356 173.261 219.356 174.147C219.356 175.034 219.004 175.884 218.377 176.511C217.75 177.137 216.9 177.49 216.014 177.49Z" fill="#CCCCCC"/>
<path d="M216.014 201.173H119.446C118.56 201.173 117.709 200.821 117.083 200.194C116.456 199.568 116.104 198.717 116.104 197.831C116.104 196.944 116.456 196.094 117.083 195.467C117.709 194.841 118.56 194.488 119.446 194.488H216.014C216.453 194.488 216.888 194.574 217.294 194.742C217.7 194.909 218.069 195.155 218.38 195.466C218.691 195.776 218.938 196.145 219.106 196.551C219.274 196.957 219.361 197.392 219.361 197.831C219.361 198.27 219.274 198.705 219.106 199.111C218.938 199.517 218.691 199.885 218.38 200.196C218.069 200.506 217.7 200.752 217.294 200.92C216.888 201.088 216.453 201.174 216.014 201.173Z" fill="#CCCCCC"/>
<path d="M248.085 146.41C258.675 146.41 267.26 137.826 267.26 127.237C267.26 116.648 258.675 108.064 248.085 108.064C237.496 108.064 228.911 116.648 228.911 127.237C228.911 137.826 237.496 146.41 248.085 146.41Z" fill="#19944F"/>
<path d="M245.47 137.216C245.139 137.216 244.812 137.138 244.516 136.99C244.22 136.842 243.962 136.627 243.764 136.362L238.533 129.388C238.365 129.164 238.242 128.909 238.173 128.638C238.103 128.366 238.088 128.084 238.128 127.807C238.167 127.53 238.261 127.263 238.404 127.022C238.546 126.781 238.735 126.57 238.959 126.402C239.183 126.234 239.438 126.112 239.71 126.043C239.981 125.973 240.263 125.958 240.541 125.997C240.818 126.037 241.085 126.131 241.326 126.273C241.567 126.416 241.777 126.605 241.945 126.829L245.368 131.391L254.157 118.208C254.471 117.738 254.959 117.412 255.514 117.302C256.068 117.191 256.643 117.305 257.114 117.619C257.584 117.932 257.911 118.42 258.022 118.974C258.133 119.528 258.02 120.103 257.707 120.574L247.245 136.266C247.055 136.55 246.801 136.784 246.502 136.949C246.204 137.114 245.87 137.205 245.529 137.215C245.509 137.215 245.49 137.216 245.47 137.216Z" fill="white"/>
<path d="M297.759 380.694L289.958 383.302L276.183 354.457L287.697 350.606L297.759 380.694Z" fill="#FFB6B6"/>
<path d="M302.278 387.589L277.124 394.316L277.018 393.998C276.143 391.383 276.339 390.269 277.57 387.801C278.172 386.586 279.009 385.502 280.033 384.613C281.056 383.723 282.246 383.046 283.534 382.619L283.534 382.619L286.963 377.597L296.702 378.216L298.897 377.481L302.278 387.589Z" fill="#2F2E41"/>
<path d="M317.033 388.028H308.808L304.894 356.303L317.035 356.303L317.033 388.028Z" fill="#FFB6B6"/>
<path d="M319.131 394.316L292.608 394.315V393.98C292.608 391.222 293.682 390.315 295.632 388.365C296.588 387.404 297.726 386.642 298.979 386.123C300.232 385.604 301.575 385.338 302.931 385.342H302.932L307.777 381.667L316.816 385.343L319.131 385.343L319.131 394.316Z" fill="#2F2E41"/>
<path d="M254.43 133.84C254.599 134.701 254.956 135.516 255.474 136.225C255.992 136.934 256.659 137.521 257.428 137.944C258.198 138.368 259.051 138.617 259.927 138.675C260.804 138.733 261.682 138.599 262.501 138.28L271.997 148.194L279.429 143.893L265.822 130.082C265.197 128.742 264.101 127.678 262.744 127.092C261.386 126.506 259.861 126.438 258.457 126.901C257.052 127.364 255.867 128.326 255.125 129.605C254.383 130.884 254.135 132.391 254.43 133.84Z" fill="#FFB6B6"/>
<path d="M315.887 183.686L320.168 179.257L295.412 156.33L270.495 134.084L263.594 143.835L289.705 168.205L315.887 183.686Z" fill="#E4E4E4"/>
<path d="M300.676 334.141C300.676 328.575 300.786 324.605 300.875 321.415C301.134 312.079 301.203 309.57 297.63 293.493L296.713 289.364L291.301 305.596C289.573 310.774 288.69 316.197 288.686 321.656L297.029 371.713H279.976L267.486 317.596L267.48 301.043C266.38 299.904 265.765 298.383 265.765 296.799C265.765 295.216 266.38 293.694 267.48 292.556L271.63 267.756L275.83 234.333H321.834C321.834 234.333 329.952 251.16 321.884 267.851L321.883 334.162L317.715 380.011H304.845L300.676 334.141Z" fill="#2F2E41"/>
<path d="M319.021 238.379L275.991 234.793L275.767 234.775L279.201 172.968C279.403 169.082 280.767 165.346 283.116 162.243C285.465 159.141 288.691 156.815 292.377 155.566V151.241C292.378 150.17 292.804 149.144 293.561 148.387C294.318 147.63 295.345 147.204 296.415 147.203H302.703C303.453 147.2 304.189 147.408 304.828 147.803C305.466 148.197 305.981 148.763 306.315 149.435L309.389 155.583L321.014 164.883C326.756 169.476 322.135 215.526 321.887 217.956L324.698 232.014C324.853 232.787 324.834 233.585 324.643 234.35C324.453 235.115 324.095 235.829 323.596 236.439C323.096 237.05 322.468 237.542 321.756 237.881C321.044 238.219 320.265 238.396 319.477 238.398C319.326 238.397 319.174 238.391 319.021 238.379Z" fill="#E4E4E4"/>
<path d="M273.452 254.698C274.133 254.142 274.683 253.445 275.064 252.653C275.446 251.862 275.649 250.997 275.66 250.119C275.67 249.241 275.489 248.371 275.127 247.571C274.765 246.771 274.232 246.059 273.566 245.487L277.835 232.441L270.539 227.913L264.769 246.422C263.882 247.605 263.46 249.072 263.582 250.546C263.705 252.019 264.364 253.396 265.434 254.417C266.505 255.437 267.912 256.029 269.39 256.081C270.868 256.132 272.313 255.64 273.452 254.698Z" fill="#FFB6B6"/>
<path d="M288.458 166.004L282.535 164.029L273.978 202.201L266.098 240.162L277.95 241.906L287.142 201.543L288.458 166.004Z" fill="#E4E4E4"/>
<path d="M294.928 143.252C302.733 143.252 309.06 136.925 309.06 129.121C309.06 121.316 302.733 114.99 294.928 114.99C287.122 114.99 280.795 121.316 280.795 129.121C280.795 136.925 287.122 143.252 294.928 143.252Z" fill="#FFB6B6"/>
<path d="M275.912 122.201C276.042 120.861 276.426 119.559 277.043 118.363C277.704 119.8 279.765 120.049 281.175 119.334C282.586 118.619 283.531 117.261 284.539 116.043C287.198 112.828 290.856 110.22 295.002 109.746C299.147 109.271 303.716 111.363 305.283 115.23C305.986 114.254 307.485 114.146 308.546 114.713C309.571 115.359 310.371 116.306 310.835 117.425C311.879 119.565 312.468 121.898 312.567 124.277C312.666 126.656 312.272 129.03 311.41 131.249C309.665 135.666 305.354 141.617 300.906 143.284C298.206 144.296 295.479 143.001 292.608 143.284C292.758 140.151 293.366 136.284 293.516 133.15C293.598 131.434 293.61 129.514 292.438 128.258C292.079 127.917 291.648 127.659 291.178 127.502C290.707 127.345 290.208 127.294 289.716 127.351C289.223 127.409 288.75 127.574 288.328 127.834C287.906 128.095 287.547 128.446 287.276 128.861C287.13 127.886 286.801 126.948 286.306 126.097C286.052 125.675 285.685 125.332 285.246 125.107C284.808 124.883 284.315 124.785 283.824 124.825C282.625 125.022 281.884 126.253 280.784 126.768C280.159 127.018 279.472 127.072 278.816 126.922C278.16 126.771 277.565 126.424 277.112 125.926C276.671 125.418 276.338 124.826 276.132 124.186C275.926 123.546 275.851 122.87 275.912 122.201Z" fill="#2F2E41"/>
<path opacity="0.1" d="M296.757 201.371L280.159 234.563H292.608L296.757 201.371Z" fill="black"/>
<path d="M408 395.332C408 395.42 407.983 395.507 407.95 395.588C407.916 395.669 407.867 395.743 407.805 395.805C407.743 395.867 407.669 395.916 407.588 395.95C407.507 395.983 407.419 396 407.332 396H90.3945C90.2172 396 90.0472 395.93 89.9219 395.804C89.7966 395.679 89.7261 395.509 89.7261 395.332C89.7261 395.154 89.7966 394.984 89.9219 394.859C90.0472 394.734 90.2172 394.663 90.3945 394.663H407.332C407.419 394.663 407.507 394.68 407.588 394.714C407.669 394.747 407.743 394.796 407.805 394.859C407.867 394.921 407.916 394.994 407.95 395.076C407.983 395.157 408 395.244 408 395.332Z" fill="#CACACA"/>
</g>
<defs>
<clipPath id="clip0_105_9714">
<rect width="408" height="396" fill="white"/>
</clipPath>
</defs>
</svg>
