<svg width="277" height="417" viewBox="0 0 277 417" fill="none" xmlns="http://www.w3.org/2000/svg">
<g clip-path="url(#clip0_113_9594)">
<path d="M218.939 335.443C218.727 335.681 218.516 335.926 218.311 336.172C215.451 339.485 212.868 343.027 210.587 346.761C210.403 347.047 210.225 347.34 210.061 347.626C204.661 356.648 200.984 366.592 199.219 376.954C198.823 379.298 198.525 381.655 198.325 384.027C198.182 385.853 198.095 387.681 198.066 389.512C197.957 397.198 198.639 405.75 193.678 411.624C192.352 413.169 190.734 414.438 188.915 415.358C187.546 416.066 186.099 416.612 184.603 416.986H169.134C168.356 416.871 167.578 416.748 166.8 416.625C166.78 416.625 166.759 416.618 166.739 416.618L166.582 416.673L165.647 416.986L165.606 417V416.986C165.607 416.959 165.605 416.931 165.599 416.905C165.601 416.855 165.598 416.804 165.593 416.755V416.748C165.586 416.612 165.579 416.482 165.579 416.346L165.558 415.985C165.558 415.985 165.552 415.978 165.558 415.978C165.552 415.773 165.538 415.569 165.531 415.358C164.815 397.573 166.562 379.196 174.968 363.537C177.851 358.172 181.563 353.294 185.968 349.084C185.993 349.057 186.021 349.032 186.05 349.009C194.79 340.683 206.09 335.238 218.018 335.422C218.325 335.422 218.632 335.429 218.939 335.443Z" fill="#F0F0F0"/>
<path d="M218.973 335.827C205.465 342.75 194.484 353.748 187.59 367.257C186.054 370.139 184.983 373.245 184.416 376.46C183.965 379.61 184.366 382.823 185.579 385.766C186.655 388.532 188.076 391.237 188.459 394.216C188.633 395.744 188.481 397.291 188.014 398.756C187.547 400.221 186.775 401.572 185.749 402.718C183.266 405.641 179.88 407.498 176.505 409.2C172.758 411.089 168.836 412.992 166.234 416.408C165.919 416.822 165.295 416.309 165.609 415.896C170.136 409.953 178.107 408.657 183.536 403.825C186.069 401.57 187.937 398.539 187.726 395.048C187.542 391.996 186.079 389.205 184.966 386.414C183.741 383.561 183.234 380.451 183.489 377.358C183.89 374.124 184.84 370.982 186.297 368.067C189.473 361.451 193.67 355.375 198.736 350.061C204.483 343.964 211.233 338.894 218.692 335.07C219.154 334.834 219.432 335.592 218.973 335.827H218.973Z" fill="white"/>
<path d="M189.553 362.777C187.441 361.314 185.917 359.149 185.255 356.668C184.594 354.188 184.836 351.553 185.94 349.234C186.165 348.766 186.905 349.093 186.679 349.562C185.647 351.719 185.421 354.173 186.043 356.482C186.664 358.791 188.091 360.802 190.066 362.153C190.495 362.447 189.98 363.069 189.553 362.777Z" fill="white"/>
<path d="M184.849 384.435C190.028 383.546 194.682 380.74 197.881 376.576C198.198 376.164 198.823 376.676 198.506 377.088C195.169 381.414 190.32 384.325 184.928 385.238C184.414 385.325 184.338 384.521 184.849 384.435V384.435Z" fill="white"/>
<path d="M204.907 344.947C205.607 345.683 206.478 346.234 207.444 346.551C208.409 346.867 209.438 346.94 210.438 346.761C210.951 346.668 211.027 347.472 210.518 347.564C209.412 347.757 208.275 347.675 207.208 347.328C206.141 346.981 205.175 346.377 204.395 345.571C204.315 345.501 204.265 345.404 204.254 345.298C204.244 345.193 204.274 345.087 204.339 345.003C204.407 344.921 204.505 344.869 204.611 344.858C204.718 344.848 204.824 344.88 204.907 344.947Z" fill="white"/>
<path d="M256.611 384.749C256.297 384.817 255.984 384.885 255.663 384.96H255.656C251.38 385.888 247.186 387.16 243.114 388.763C242.801 388.885 242.487 389.008 242.173 389.137H242.166C232.461 393.083 223.569 398.784 215.936 405.954C215.909 405.982 215.882 406.002 215.855 406.029C215.838 406.049 215.82 406.067 215.8 406.084L215.766 406.118C212.737 408.983 209.93 412.072 207.366 415.358C207.366 415.365 207.359 415.371 207.352 415.378C206.943 415.91 206.527 416.441 206.117 416.986H165.647L165.606 417V416.986H165.436C165.436 416.98 165.442 416.973 165.449 416.966C165.449 416.959 165.456 416.959 165.456 416.952C165.504 416.884 165.552 416.816 165.593 416.755V416.748C165.603 416.727 165.617 416.709 165.633 416.693C165.674 416.625 165.722 416.571 165.756 416.509C166.029 416.128 166.295 415.739 166.568 415.358C167.012 414.724 167.462 414.09 167.919 413.464C167.919 413.463 167.919 413.462 167.92 413.461C167.92 413.46 167.921 413.459 167.921 413.459C167.922 413.458 167.923 413.458 167.924 413.457C167.924 413.457 167.925 413.457 167.926 413.457V413.45C167.933 413.443 167.933 413.436 167.94 413.429L167.953 413.416C173.583 405.634 179.915 398.248 187.168 392.061C187.387 391.87 187.605 391.679 187.837 391.502C191.122 388.727 194.629 386.227 198.325 384.027C200.345 382.834 202.426 381.74 204.568 380.742C210.095 378.199 215.987 376.539 222.03 375.823H222.043C222.057 375.823 222.071 375.816 222.091 375.816C222.112 375.816 222.125 375.809 222.139 375.809C234.155 374.419 246.472 376.865 255.895 384.184C256.141 384.374 256.373 384.558 256.611 384.749Z" fill="#F0F0F0"/>
<path d="M165.436 416.986H165.606V417L165.647 416.986H176.476C173.249 416.434 170.028 416.005 166.8 416.625C166.725 416.639 166.657 416.652 166.582 416.673C166.254 416.734 165.927 416.816 165.599 416.905C165.579 416.911 165.552 416.918 165.531 416.925C165.501 416.933 165.474 416.947 165.449 416.966C165.432 416.968 165.415 416.976 165.401 416.986H165.436Z" fill="white"/>
<path d="M256.414 385.083C256.161 385.042 255.915 384.994 255.663 384.96H255.656C250.391 384.103 245.048 383.833 239.723 384.156C239.457 384.17 239.184 384.19 238.911 384.204C231.521 384.719 224.254 386.371 217.369 389.103C217.363 389.103 217.363 389.103 217.363 389.11C217.287 389.137 217.212 389.165 217.144 389.192C215.541 389.839 213.958 390.548 212.409 391.311C209.445 392.689 206.716 394.524 204.323 396.749C202.407 398.637 200.956 400.944 200.085 403.488C199.997 403.747 199.908 403.999 199.826 404.258C199.765 404.462 199.703 404.673 199.642 404.878C198.837 407.733 198.339 410.745 196.851 413.355C196.437 414.083 195.932 414.756 195.35 415.358C194.748 415.983 194.069 416.531 193.33 416.986H191.611C192.552 416.58 193.424 416.031 194.197 415.358C194.798 414.84 195.324 414.242 195.759 413.579C197.452 411.031 197.97 407.924 198.762 405.028C198.891 404.558 199.028 404.101 199.178 403.644C199.966 401.146 201.286 398.847 203.047 396.905C205.316 394.565 207.967 392.627 210.887 391.175C212.729 390.207 214.622 389.33 216.564 388.545C216.817 388.436 217.069 388.34 217.322 388.245C229.586 383.478 242.905 382.076 255.895 384.184C256.147 384.218 256.393 384.265 256.646 384.306C257.157 384.395 256.925 385.172 256.414 385.083Z" fill="white"/>
<path d="M216.677 388.911C215.872 386.473 215.961 383.828 216.928 381.449C217.895 379.071 219.678 377.113 221.957 375.925C222.419 375.687 222.812 376.392 222.35 376.631C220.225 377.733 218.565 379.557 217.669 381.774C216.773 383.991 216.7 386.455 217.463 388.721C217.628 389.213 216.841 389.4 216.677 388.911H216.677Z" fill="white"/>
<path d="M199.863 403.375C204.535 405.779 209.942 406.336 215.007 404.936C215.508 404.797 215.698 405.581 215.197 405.72C209.924 407.168 204.298 406.576 199.442 404.064C198.979 403.824 199.403 403.136 199.863 403.375Z" fill="white"/>
<path d="M239.686 383.906C239.801 384.914 240.164 385.878 240.744 386.711C241.324 387.545 242.102 388.221 243.009 388.679C243.474 388.913 243.05 389.601 242.588 389.369C241.589 388.857 240.73 388.109 240.087 387.19C239.445 386.271 239.037 385.209 238.9 384.096C238.879 383.992 238.897 383.884 238.953 383.794C239.008 383.703 239.096 383.637 239.198 383.609C239.302 383.584 239.412 383.601 239.503 383.657C239.595 383.713 239.66 383.802 239.686 383.906Z" fill="white"/>
<path d="M216.352 113.311C216.537 90.7496 217.456 67.9702 219.109 44.9728C219.136 44.5163 219.171 44.0665 219.205 43.61C220.078 31.6377 221.147 19.6222 222.412 7.56362V7.49548C222.411 5.50792 221.619 3.60212 220.212 2.1967C218.805 0.791286 216.896 0.00120131 214.906 1.52588e-05H13.6123C11.6287 0.00390719 9.72697 0.790186 8.32117 2.18766C6.91537 3.58512 6.11935 5.48061 6.10642 7.46141C4.3596 24.0673 2.99034 40.5914 1.99865 57.0337C1.95771 57.572 1.93043 58.1035 1.90314 58.6418C1.41184 66.771 1.02063 74.8797 0.729491 82.968C0.70902 83.445 0.688545 83.922 0.681721 84.399C-1.18122 134.026 0.631958 183.722 6.10642 233.082C6.12077 235.061 6.91746 236.955 8.32315 238.351C9.72883 239.748 11.6298 240.533 13.6123 240.536H214.906C216.896 240.535 218.805 239.745 220.212 238.34C221.619 236.934 222.411 235.028 222.412 233.041V232.966C221.422 224.196 220.553 215.37 219.805 206.486C219.696 205.185 219.589 203.883 219.484 202.582C218.966 196.184 218.513 189.76 218.127 183.312C218.045 182.01 217.97 180.709 217.901 179.407C217.171 166.502 216.694 153.496 216.468 140.39C216.441 139.089 216.421 137.794 216.4 136.486C216.318 130.087 216.293 123.664 216.325 117.215C216.325 115.914 216.332 114.612 216.352 113.311Z" fill="#F0F0F0"/>
<path d="M277 51.1055C276.999 49.1179 276.208 47.2121 274.8 45.8067C273.393 44.4013 271.484 43.6112 269.494 43.61H68.2006C66.217 43.6139 64.3153 44.4002 62.9095 45.7976C61.5037 47.1951 60.7076 49.0906 60.6947 51.0714C53.8985 115.785 52.7726 179.353 57.3239 240.536C57.8766 248.107 58.5226 255.639 59.2618 263.132C59.6575 267.145 60.0783 271.147 60.5241 275.138C60.5787 275.656 60.6333 276.174 60.6947 276.692C60.7091 278.671 61.5058 280.565 62.9114 281.961C64.3171 283.358 66.2181 284.143 68.2006 284.146H269.494C271.484 284.145 273.393 283.355 274.8 281.95C276.208 280.544 276.999 278.638 277 276.651V276.576C268.86 204.504 268.86 128.67 277 51.1736V51.1055Z" fill="white"/>
<path d="M277 51.1055C276.999 49.1179 276.208 47.2121 274.8 45.8067C273.393 44.4013 271.484 43.6112 269.494 43.61H68.2006C66.217 43.6139 64.3153 44.4002 62.9095 45.7976C61.5037 47.1951 60.7076 49.0906 60.6947 51.0714C53.8985 115.785 52.7726 179.353 57.3239 240.536C57.8766 248.107 58.5226 255.639 59.2618 263.132C59.6575 267.145 60.0783 271.147 60.5241 275.138C60.5787 275.656 60.6333 276.174 60.6947 276.692C60.7091 278.671 61.5058 280.565 62.9114 281.961C64.3171 283.358 66.2181 284.143 68.2006 284.146H269.494C271.484 284.145 273.393 283.355 274.8 281.95C276.208 280.544 276.999 278.638 277 276.651V276.576C268.86 204.504 268.86 128.67 277 51.1736V51.1055ZM275.635 276.692C275.623 278.311 274.971 279.859 273.821 281C272.671 282.141 271.115 282.782 269.494 282.783H68.2006C66.5726 282.781 65.012 282.134 63.8608 280.985C62.7096 279.835 62.0619 278.277 62.0594 276.651V276.576C62.0117 276.14 61.9639 275.697 61.9161 275.261C61.4453 271.091 61.0063 266.909 60.5992 262.716C59.8827 255.364 59.2481 247.97 58.6954 240.536C54.1441 179.387 55.2632 115.859 62.0594 51.1736V51.1055C62.0619 49.4797 62.7097 47.9213 63.8608 46.7717C65.012 45.6221 66.5726 44.9752 68.2006 44.9728H269.494C271.117 44.9733 272.673 45.6149 273.824 46.7576C274.975 47.9002 275.626 49.451 275.635 51.0714C267.495 128.629 267.495 204.544 275.635 276.692Z" fill="#E4E4E4"/>
<path d="M82.0756 113.311C81.5577 113.313 81.0616 113.519 80.6959 113.885C80.3302 114.251 80.1249 114.747 80.1249 115.264C80.1249 115.781 80.3302 116.277 80.6959 116.644C81.0616 117.01 81.5577 117.216 82.0756 117.217H245.656C246.174 117.216 246.67 117.01 247.036 116.644C247.402 116.277 247.607 115.781 247.607 115.264C247.607 114.747 247.402 114.251 247.036 113.885C246.67 113.519 246.174 113.313 245.656 113.311H82.0756Z" fill="#E6E6E6"/>
<path d="M82.0756 125.031C81.5575 125.032 81.0609 125.238 80.6949 125.605C80.3289 125.971 80.1234 126.467 80.1234 126.984C80.1234 127.502 80.3289 127.998 80.6949 128.364C81.0609 128.73 81.5575 128.937 82.0756 128.937H193.125C193.643 128.937 194.139 128.73 194.505 128.364C194.871 127.998 195.077 127.502 195.077 126.984C195.077 126.467 194.871 125.971 194.505 125.605C194.139 125.238 193.643 125.032 193.125 125.031H82.0756Z" fill="#E6E6E6"/>
<path d="M82.0756 136.486C81.5575 136.487 81.0609 136.693 80.6949 137.059C80.3289 137.425 80.1234 137.922 80.1234 138.439C80.1234 138.956 80.3289 139.453 80.6949 139.819C81.0609 140.185 81.5575 140.391 82.0756 140.392H245.656C246.174 140.391 246.671 140.185 247.037 139.819C247.403 139.453 247.609 138.956 247.609 138.439C247.609 137.922 247.403 137.425 247.037 137.059C246.671 136.693 246.174 136.487 245.656 136.486H82.0756Z" fill="#E6E6E6"/>
<path d="M82.0756 148.206C81.5577 148.207 81.0616 148.414 80.6959 148.78C80.3302 149.146 80.1249 149.642 80.1249 150.159C80.1249 150.676 80.3302 151.172 80.6959 151.538C81.0616 151.904 81.5577 152.111 82.0756 152.112H193.125C193.642 152.111 194.139 151.904 194.504 151.538C194.87 151.172 195.075 150.676 195.075 150.159C195.075 149.642 194.87 149.146 194.504 148.78C194.139 148.414 193.642 148.207 193.125 148.206H82.0756Z" fill="#E6E6E6"/>
<path d="M82.0756 179.408C81.5577 179.409 81.0616 179.615 80.6959 179.981C80.3302 180.348 80.1249 180.844 80.1249 181.361C80.1249 181.878 80.3302 182.374 80.6959 182.74C81.0616 183.106 81.5577 183.312 82.0756 183.314H245.656C246.174 183.312 246.67 183.106 247.036 182.74C247.402 182.374 247.607 181.878 247.607 181.361C247.607 180.844 247.402 180.348 247.036 179.981C246.67 179.615 246.174 179.409 245.656 179.408H82.0756Z" fill="#E6E6E6"/>
<path d="M82.0756 191.128C81.5575 191.129 81.0609 191.335 80.6949 191.701C80.3289 192.067 80.1234 192.563 80.1234 193.081C80.1234 193.598 80.3289 194.094 80.6949 194.461C81.0609 194.827 81.5575 195.033 82.0756 195.034H193.125C193.643 195.033 194.139 194.827 194.505 194.461C194.871 194.094 195.077 193.598 195.077 193.081C195.077 192.563 194.871 192.067 194.505 191.701C194.139 191.335 193.643 191.129 193.125 191.128H82.0756Z" fill="#E6E6E6"/>
<path d="M82.0756 202.582C81.5575 202.583 81.0609 202.79 80.6949 203.156C80.3289 203.522 80.1234 204.018 80.1234 204.535C80.1234 205.053 80.3289 205.549 80.6949 205.915C81.0609 206.281 81.5575 206.488 82.0756 206.489H245.656C246.174 206.488 246.671 206.281 247.037 205.915C247.403 205.549 247.609 205.053 247.609 204.535C247.609 204.018 247.403 203.522 247.037 203.156C246.671 202.79 246.174 202.583 245.656 202.582H82.0756Z" fill="#E6E6E6"/>
<path d="M82.0756 214.302C81.5577 214.304 81.0616 214.51 80.6959 214.876C80.3302 215.242 80.1249 215.738 80.1249 216.255C80.1249 216.773 80.3302 217.269 80.6959 217.635C81.0616 218.001 81.5577 218.207 82.0756 218.209H193.125C193.642 218.207 194.139 218.001 194.504 217.635C194.87 217.269 195.075 216.773 195.075 216.255C195.075 215.738 194.87 215.242 194.504 214.876C194.139 214.51 193.642 214.304 193.125 214.302H82.0756Z" fill="#E6E6E6"/>
<path d="M114.442 89.0597H83.1985C82.7939 89.0593 82.4059 88.8985 82.1198 88.6128C81.8337 88.327 81.6727 87.9396 81.6722 87.5355V82.5366C81.6727 82.1325 81.8337 81.7451 82.1198 81.4593C82.4059 81.1736 82.7939 81.0129 83.1985 81.0124H114.442C114.847 81.0129 115.235 81.1736 115.521 81.4593C115.807 81.7451 115.968 82.1325 115.968 82.5366V87.5355C115.968 87.9396 115.807 88.327 115.521 88.6128C115.235 88.8985 114.847 89.0593 114.442 89.0597Z" fill="#19944F"/>
<path d="M222.982 249.855L213.412 253.014C211.817 253.54 210.222 254.067 208.627 254.593C207.15 255.079 205.551 255.656 203.97 255.447C202.877 255.303 201.631 254.675 201.291 253.552C200.968 252.49 201.652 251.378 202.479 250.75C204.763 249.015 207.65 250.781 209.268 252.577C211.248 254.775 212.368 257.612 214.224 259.912C215.877 261.975 217.972 263.641 220.355 264.788C225.091 267.021 230.868 266.784 235.093 263.529C240.137 259.644 240.652 252.909 240.679 247.033C240.669 246.768 240.558 246.517 240.367 246.332C240.176 246.148 239.921 246.045 239.655 246.045C239.39 246.045 239.135 246.148 238.944 246.332C238.753 246.517 238.641 246.768 238.632 247.033C238.607 252.358 238.304 258.886 233.442 262.218C228.784 265.41 222.662 264.564 218.374 261.163C215.985 259.267 214.515 256.796 212.946 254.237C211.414 251.739 209.513 249.317 206.63 248.346C205.394 247.897 204.041 247.889 202.8 248.322C201.558 248.754 200.504 249.602 199.816 250.722C199.502 251.25 199.304 251.839 199.236 252.449C199.167 253.06 199.23 253.678 199.419 254.262C199.609 254.847 199.921 255.384 200.334 255.839C200.748 256.294 201.254 256.655 201.819 256.899C205.161 258.489 208.984 256.626 212.202 255.564L223.526 251.827C224.771 251.416 224.238 249.441 222.982 249.856L222.982 249.855Z" fill="#19944F"/>
<path d="M194.623 400.105L187.912 402.313L176.191 377.517L186.095 374.258L194.623 400.105Z" fill="#9F616A"/>
<path d="M199.41 405.736L198.953 404.353L197.752 400.708L196.933 398.227L194.695 398.963L194.231 398.929L188.083 398.514L187.264 398.459L186.049 398.377L184.794 398.289L181.287 403.379H181.28C179.969 403.805 178.756 404.487 177.711 405.386C176.666 406.284 175.81 407.381 175.193 408.612C175.118 408.762 175.05 408.912 174.982 409.062C174.812 409.428 174.669 409.806 174.552 410.193C174.021 411.863 173.922 413.64 174.265 415.358C174.353 415.784 174.465 416.205 174.6 416.618L174.62 416.687L174.702 416.939L175.193 416.775L179.506 415.358L194.613 410.39L197.608 409.402L198.53 409.096H198.536L200.324 408.51L199.41 405.736Z" fill="#2F2E41"/>
<path d="M131.014 405.935L123.949 405.934L120.588 378.72L131.016 378.721L131.014 405.935Z" fill="#9F616A"/>
<path d="M119.707 286.635L116.575 292.046C116.575 292.046 113.134 292.984 114.259 304.187C115.053 312.098 115.31 347.518 117.31 370.528C118.142 380.105 119.276 387.532 120.876 389.933L121.861 390.814L132.142 391.795L132.401 391.704L136.177 365.077C136.854 360.298 136.753 355.44 135.876 350.692L135.194 343.197L144.66 305.244C144.66 305.244 154.3 329.569 160.441 352.737C161.919 358.314 167.534 361.86 169.663 366.646C170.377 368.25 171.077 369.803 171.761 371.294C176.264 381.11 178.521 388.257 180.229 388.851H181.594L189.782 386.125L191.393 382.081L178.864 345.241L169.483 285.758C151.607 276.16 134.838 275.092 119.707 286.635Z" fill="#2F2E41"/>
<path d="M170.915 206.486C170.298 205.129 169.572 203.823 168.745 202.582C166.854 199.64 164.227 197.242 161.123 195.625L158.435 195.032L153.617 193.969L151.079 191.128L146.917 186.474H132.587L130.67 191.128L129.059 195.032L128.37 196.695L116.102 202.82C116.095 202.82 116.095 202.82 116.088 202.827C116.252 204.054 116.413 205.274 116.572 206.486C116.92 209.124 117.248 211.729 117.555 214.302C117.712 215.611 117.862 216.912 118.005 218.207C118.463 222.268 118.856 226.259 119.186 230.179C119.479 233.681 119.713 237.134 119.889 240.536C120.315 248.264 120.347 256.008 119.984 263.738C119.889 265.558 121.697 267.629 121.554 269.408C121.315 272.31 119.07 274.886 118.674 277.659C118.428 279.363 118.538 281.175 118.108 282.784C117.988 283.254 117.809 283.707 117.575 284.133C117.575 284.14 117.569 284.139 117.569 284.146C112.656 292.909 116.511 288.725 116.054 290.695L116.272 290.749C116.375 290.776 116.688 290.858 117.193 290.974C120.08 291.662 131.98 280.508 139.97 280.508C144.767 280.508 157.466 288.385 161.717 288.957C165.081 289.407 168.083 289.816 169.871 288.242C170.39 287.782 170.786 287.202 171.024 286.552L171.044 286.49L171.038 286.429L170.867 284.146L170.765 282.784L169.304 263.227C168.489 262.217 167.974 260.999 167.817 259.712C167.66 258.424 167.868 257.118 168.417 255.943L168.718 255.309L167.612 240.536L167.408 237.777L167.332 236.843V236.836L166.8 229.702L168.083 225.804V225.797L170.58 218.207L171.863 214.302L172.668 211.849L172.723 211.686C172.293 209.897 171.688 208.156 170.915 206.486Z" fill="#19944F"/>
<path d="M183.363 276.95L169.607 241.448L163.218 228.484L175.504 221.706L185.399 239.116L192.032 275.49C193.076 276.202 193.883 277.209 194.349 278.382C194.816 279.556 194.92 280.841 194.649 282.075C194.378 283.308 193.745 284.432 192.829 285.302C191.914 286.173 190.758 286.75 189.512 286.96C188.265 287.17 186.984 287.003 185.834 286.481C184.683 285.958 183.715 285.104 183.054 284.028C182.393 282.952 182.069 281.703 182.124 280.442C182.179 279.181 182.611 277.965 183.363 276.95H183.363Z" fill="#9F616A"/>
<path d="M183.641 228.039L180.12 225.763L176.073 218.207L173.985 214.302L172.669 211.849L172.109 210.8L165.784 206.486L161.512 203.57L158.032 206.486L156.374 207.877L157.998 214.302L158.981 218.207L161.123 226.677L167.408 237.777L168.97 240.536L169.864 242.124L169.871 242.138L169.994 242.349L185.872 241.688L186.37 241.667L186.397 240.536L186.411 240.127C186.418 239.923 186.418 239.719 186.418 239.514C186.416 235.524 185.464 231.59 183.641 228.039Z" fill="#19944F"/>
<path d="M63.4615 262.831L91.6023 237.152L101.382 226.504L112.164 235.479L99.5066 251.002L67.9684 270.368C67.6829 271.598 67.0357 272.715 66.11 273.574C65.1842 274.434 64.0222 274.998 62.7733 275.193C61.5243 275.388 60.2454 275.206 59.101 274.67C57.9565 274.134 56.9986 273.268 56.3505 272.184C55.7023 271.1 55.3935 269.848 55.4637 268.587C55.5339 267.327 55.9798 266.116 56.7443 265.111C57.5087 264.105 58.5568 263.351 59.7537 262.945C60.9507 262.539 62.2419 262.499 63.4615 262.831H63.4615Z" fill="#9F616A"/>
<path d="M121.554 218.207L121.499 214.302L121.397 206.486L121.356 203.454L121.24 203.372C120.604 202.956 119.884 202.686 119.131 202.582C118.469 202.472 117.794 202.472 117.132 202.582C116.783 202.636 116.439 202.716 116.102 202.82C116.095 202.82 116.095 202.82 116.088 202.827C114.065 203.552 112.279 204.815 110.923 206.48L110.916 206.486C108.869 208.917 107.056 211.534 105.498 214.302C104.727 215.61 103.99 216.932 103.301 218.207C100.694 223.051 98.8176 227.249 98.7835 227.324L90.991 237.429L91.1002 237.613L92.8129 240.536L99.0906 251.255L100.087 252.958L102.632 251.602C105.599 250.022 107.938 247.479 109.264 244.393L110.172 240.932L110.506 240.536L119.186 230.179L121.67 227.208L121.554 218.207Z" fill="#19944F"/>
<path d="M151.294 173.139C152.456 165.987 147.593 159.25 140.432 158.089C133.271 156.929 126.524 161.785 125.362 168.936C124.2 176.087 129.063 182.825 136.224 183.986C143.385 185.146 150.132 180.29 151.294 173.139Z" fill="#9F616A"/>
<path d="M125.63 162.438C125.046 160.397 123.878 158.648 124.462 158.648C125.046 158.648 125.338 157.191 125.338 157.191C125.338 157.191 125.922 156.899 126.214 157.191C126.506 157.482 126.797 155.15 126.797 155.15C126.797 155.15 127.089 154.276 127.381 154.859C127.673 155.442 127.673 155.15 127.965 154.276C128.257 153.401 129.717 152.818 129.717 152.818C129.717 152.818 135.263 153.11 136.138 151.944C137.014 150.778 146.939 151.652 148.982 153.11C151.026 154.567 159.076 157.173 154.3 165.35C157.029 170.12 152.954 178.627 151.901 179.637C150.236 181.233 149.084 181.808 141.206 183.374C139.664 183.68 135.876 170.801 135.876 170.801C135.876 170.801 126.214 164.479 125.63 162.438Z" fill="#2F2E41"/>
<path d="M131.441 404.871L131.018 404.701L123.416 401.607L122.25 401.137L117.323 404.871H117.316C114.533 404.874 111.864 405.98 109.897 407.947C107.929 409.913 106.823 412.578 106.822 415.358V415.699H133.795V404.871H131.441Z" fill="#2F2E41"/>
<path d="M210.723 416.169C210.724 416.276 210.703 416.382 210.662 416.481C210.622 416.579 210.562 416.67 210.487 416.745C210.411 416.821 210.322 416.882 210.223 416.923C210.124 416.964 210.018 416.986 209.911 416.986H71.1893C70.973 416.986 70.7656 416.901 70.6127 416.748C70.4597 416.595 70.3738 416.388 70.3738 416.172C70.3738 415.956 70.4597 415.749 70.6127 415.596C70.7656 415.444 70.973 415.358 71.1893 415.358H209.911C210.126 415.358 210.333 415.444 210.485 415.596C210.637 415.748 210.723 415.954 210.723 416.169Z" fill="#CCCCCC"/>
<path d="M67.5046 1.52588e-05C66.431 19.0569 59.4162 37.3014 47.4424 52.1789C35.4686 67.0563 19.1354 77.8219 0.729685 82.968C0.709214 83.445 0.688739 83.922 0.681915 84.399C19.4689 79.2379 36.1579 68.3143 48.3928 53.1706C60.6277 38.0269 67.7903 19.4281 68.8693 1.52588e-05H67.5046Z" fill="white"/>
<path d="M46.6041 1.52588e-05C43.4331 12.0314 37.8432 23.2925 30.1748 33.0976C22.5063 42.9027 12.9198 51.0466 1.99884 57.0337C1.9579 57.572 1.93061 58.1035 1.90332 58.6418C13.2215 52.5682 23.1602 44.2239 31.0957 34.1324C39.0312 24.041 44.792 12.4204 48.0166 1.52588e-05H46.6041Z" fill="white"/>
</g>
<defs>
<clipPath id="clip0_113_9594">
<rect width="277" height="417" fill="white"/>
</clipPath>
</defs>
</svg>
