<svg width="58" height="58" viewBox="0 0 58 58" fill="none" xmlns="http://www.w3.org/2000/svg">
<path d="M39.3674 16.9633C40.6688 15.3726 40.4344 13.0281 38.8437 11.7267C37.2531 10.4253 34.9086 10.6597 33.6072 12.2504L14.5615 35.5284L7.94667 30.5673C6.30252 29.3342 3.97002 29.6674 2.7369 31.3115C1.50378 32.9557 1.837 35.2882 3.48116 36.5213L11.1345 42.2613C13.7445 44.2188 17.4337 43.7711 19.4997 41.246L39.3674 16.9633Z" stroke="#222222" stroke-width="2.70816" stroke-linecap="round"/>
<mask id="path-2-outside-1_331_9622" maskUnits="userSpaceOnUse" x="20.5818" y="10.2527" width="37" height="34" fill="black">
<rect fill="white" x="20.5818" y="10.2527" width="37" height="34"/>
<path fill-rule="evenodd" clip-rule="evenodd" d="M24.5818 36.643L29.8612 40.8665C31.0201 41.7936 32.7093 41.6153 33.649 40.4667L54.1056 15.4643C54.5791 14.8855 54.4938 14.0324 53.915 13.5588C53.3362 13.0852 52.4831 13.1706 52.0096 13.7494L31.553 38.7518L26.2968 34.5468L24.5818 36.643Z"/>
</mask>
<path d="M29.8612 40.8665L31.553 38.7518L29.8612 40.8665ZM24.5818 36.643L22.4858 34.9281L20.7519 37.0472L22.89 38.7577L24.5818 36.643ZM33.649 40.4667L31.553 38.7518L33.649 40.4667ZM54.1056 15.4643L52.0096 13.7494V13.7494L54.1056 15.4643ZM53.915 13.5588L55.6299 11.4628L55.6299 11.4628L53.915 13.5588ZM52.0096 13.7494L49.9136 12.0344V12.0344L52.0096 13.7494ZM31.553 38.7518L29.8612 40.8665L31.9529 42.5398L33.649 40.4667L31.553 38.7518ZM26.2968 34.5468L27.9886 32.4321L25.897 30.7588L24.2008 32.8319L26.2968 34.5468ZM31.553 38.7518L26.2736 34.5283L22.89 38.7577L28.1695 42.9813L31.553 38.7518ZM31.553 38.7518H31.553L28.1695 42.9813C30.4872 44.8354 33.8655 44.4789 35.745 42.1816L31.553 38.7518ZM52.0096 13.7494L31.553 38.7518L35.745 42.1816L56.2016 17.1792L52.0096 13.7494ZM52.2001 15.6548C51.6213 15.1813 51.536 14.3282 52.0096 13.7494L56.2016 17.1792C57.6223 15.4428 57.3663 12.8835 55.6299 11.4628L52.2001 15.6548ZM54.1056 15.4643C53.632 16.0431 52.7789 16.1284 52.2001 15.6548L55.6299 11.4628C53.8936 10.0421 51.3343 10.2981 49.9136 12.0344L54.1056 15.4643ZM33.649 40.4667L54.1056 15.4643L49.9136 12.0344L29.457 37.0369L33.649 40.4667ZM24.605 36.6616L29.8612 40.8665L33.2448 36.6371L27.9886 32.4321L24.605 36.6616ZM24.2008 32.8319L22.4858 34.9281L26.6778 38.3579L28.3928 36.2618L24.2008 32.8319Z" fill="#222222" mask="url(#path-2-outside-1_331_9622)"/>
</svg>
