<svg width="81" height="80" viewBox="0 0 81 80" fill="none" xmlns="http://www.w3.org/2000/svg">
<path d="M28.0216 46.498H39.6902V66.6184L39.6902 66.6617C39.6901 67.2262 39.6901 67.7066 39.7272 68.051C39.7458 68.2243 39.7793 68.4278 39.8607 68.6098C39.9489 68.8071 40.1357 69.0633 40.4851 69.1402C40.8345 69.2172 41.1117 69.0632 41.2745 68.9212C41.4249 68.7902 41.5408 68.6197 41.6305 68.4702C41.8088 68.1732 42.0106 67.7373 42.2477 67.225L42.2659 67.1857L55.7726 38.0113L55.7957 37.9614C56.1756 37.141 56.4926 36.4564 56.6567 35.8988C56.8275 35.3189 56.8849 34.7088 56.5291 34.152C56.1733 33.5952 55.5956 33.391 54.9976 33.3023C54.4226 33.2171 53.6681 33.2171 52.764 33.2171H52.7091H41.0405V13.0967V13.0534C41.0406 12.489 41.0406 12.0086 41.0035 11.6642C40.9849 11.4908 40.9514 11.2874 40.87 11.1053C40.7818 10.9081 40.595 10.6519 40.2456 10.5749C39.8962 10.498 39.619 10.652 39.4562 10.7939C39.3058 10.925 39.1899 11.0955 39.1002 11.245C38.9219 11.5419 38.7201 11.9779 38.483 12.4901L38.4648 12.5294L24.9581 41.7038L24.935 41.7537C24.5551 42.5741 24.2381 43.2588 24.074 43.8163C23.9032 44.3963 23.8458 45.0063 24.2016 45.5632C24.5574 46.12 25.1352 46.3241 25.7331 46.4128C26.3081 46.4981 27.0626 46.4981 27.9667 46.498H28.0216Z" stroke="#33363F" stroke-width="1.35036"/>
</svg>
