<svg width="45" height="45" viewBox="0 0 45 45" fill="none" xmlns="http://www.w3.org/2000/svg">
<mask id="mask0_304_9606" style="mask-type:alpha" maskUnits="userSpaceOnUse" x="0" y="0" width="45" height="45">
<path d="M19.6181 25.1357L14.6858 24.6873C13.158 24.5485 12.3941 24.479 12.1515 23.9564C11.9088 23.4338 12.3487 22.8054 13.2285 21.5486L22.9362 7.68044C23.5174 6.85017 23.808 6.43503 24.0586 6.52331C24.3092 6.61158 24.2755 7.1172 24.2081 8.12842L23.5674 17.7394C23.506 18.6596 23.4754 19.1197 23.7398 19.4294C24.0042 19.739 24.4634 19.7808 25.3819 19.8643L30.3142 20.3127C31.842 20.4515 32.6059 20.521 32.8485 21.0436C33.0912 21.5662 32.6513 22.1946 31.7715 23.4514L22.0638 37.3196C21.4826 38.1498 21.192 38.565 20.9414 38.4767C20.6908 38.3884 20.7245 37.8828 20.7919 36.8716L21.4326 27.2606C21.494 26.3404 21.5246 25.8803 21.2602 25.5706C20.9958 25.261 20.5366 25.2192 19.6181 25.1357Z" fill="#222222"/>
<path d="M34.6875 7.5L31.875 11.25H35.625L32.8125 15" stroke="#2A4157" stroke-opacity="0.24" stroke-linecap="round" stroke-linejoin="round"/>
<path d="M12.1875 30L9.375 33.75H13.125L10.3125 37.5" stroke="#2A4157" stroke-opacity="0.24" stroke-linecap="round" stroke-linejoin="round"/>
</mask>
<g mask="url(#mask0_304_9606)">
<rect x="-8" y="-5" width="62" height="50" fill="#19944F"/>
</g>
</svg>
