<svg width="264" height="186" viewBox="0 0 264 186" fill="none" xmlns="http://www.w3.org/2000/svg">
<rect x="38.5" y="42.5" width="225" height="143" stroke="black"/>
<g clip-path="url(#clip0_402_9649)">
<path d="M218.784 136.646C219.012 136.351 219.172 136.009 219.253 135.645C219.334 135.282 219.334 134.905 219.254 134.541C219.174 134.177 219.014 133.835 218.788 133.539C218.561 133.244 218.272 133.001 217.942 132.829L218.445 127.026L214.993 125.86L214.397 134.065C214.145 134.639 214.112 135.286 214.305 135.883C214.498 136.48 214.903 136.985 215.444 137.304C215.985 137.622 216.623 137.73 217.239 137.609C217.854 137.488 218.404 137.145 218.784 136.646L218.784 136.646Z" fill="#FFB8B8"/>
<path d="M236.008 181.761H232.902L231.424 169.774H236.01L236.008 181.761Z" fill="#FFB8B8"/>
<path d="M230.682 180.873H236.675V184.646H226.909C226.909 183.646 227.306 182.686 228.014 181.978C228.721 181.271 229.681 180.873 230.682 180.873Z" fill="#2F2E41"/>
<path d="M228.955 173.807L225.938 174.549L221.642 163.262L226.096 162.167L228.955 173.807Z" fill="#FFB8B8"/>
<path d="M223.613 174.109L229.432 172.677L230.334 176.341L220.851 178.675C220.612 177.703 220.768 176.676 221.286 175.82C221.804 174.964 222.641 174.348 223.613 174.109V174.109Z" fill="#2F2E41"/>
<path d="M232.372 177.939C232.088 177.94 231.814 177.835 231.604 177.646C231.393 177.456 231.26 177.194 231.231 176.912L227.656 143.6L224.544 153.787L228.951 169.697C229.027 169.97 228.999 170.261 228.874 170.515C228.748 170.769 228.533 170.967 228.27 171.072L224.766 172.473C224.622 172.531 224.468 172.559 224.312 172.555C224.157 172.552 224.004 172.516 223.863 172.452C223.721 172.388 223.594 172.295 223.49 172.18C223.385 172.066 223.305 171.931 223.254 171.784L217.853 156.288C217.262 154.596 217 152.806 217.082 151.016L217.836 134.292L237.691 135.133L237.381 176.509C237.377 176.797 237.266 177.073 237.069 177.284C236.873 177.494 236.605 177.624 236.317 177.647L232.462 177.937C232.432 177.939 232.402 177.939 232.372 177.939Z" fill="#2F2E41"/>
<path d="M229.084 97.282C232.771 97.282 235.76 94.2929 235.76 90.6057C235.76 86.9185 232.771 83.9294 229.084 83.9294C225.397 83.9294 222.408 86.9185 222.408 90.6057C222.408 94.2929 225.397 97.282 229.084 97.282Z" fill="#FFB8B8"/>
<path d="M233.994 136.221C232.236 136.221 230.052 136.077 227.791 135.929C224.704 135.725 221.511 135.515 219.127 135.653C218.805 135.685 218.481 135.634 218.184 135.505C217.887 135.376 217.629 135.173 217.433 134.915C214.976 131.769 218.765 119.501 218.928 118.98L222.012 105.262L222.144 105.292L222.012 105.262C222.691 102.245 224.858 100.019 227.669 99.4536C230.3 98.9252 232.846 99.9785 234.478 102.274C234.564 102.396 234.651 102.521 234.737 102.649C240.052 110.52 237.046 130.076 236.845 131.337C237.125 131.673 238.644 133.574 238.226 134.895C238.056 135.432 237.595 135.799 236.856 135.982C235.913 136.169 234.953 136.249 233.993 136.22L233.994 136.221Z" fill="#19944F"/>
<path d="M219.235 136.227C218.63 136.227 217.814 136.004 216.714 135.547C216.242 135.351 214.803 134.752 216.55 119.49C217.407 111.993 218.636 104.549 218.649 104.474L218.66 104.403L218.727 104.373C218.758 104.358 221.897 102.92 222.442 101.071C222.461 101.007 222.482 100.945 222.506 100.885C222.656 100.474 222.959 100.137 223.352 99.9441C223.745 99.7512 224.197 99.7174 224.614 99.8498C225.054 99.9551 225.438 100.224 225.688 100.602C225.937 100.98 226.034 101.439 225.957 101.885C225.767 103.091 225.402 104.262 224.872 105.362C223.395 108.41 222.395 116.488 222.385 116.569C222.329 117.259 220.988 133.605 220.73 134.845C220.64 135.278 220.474 135.808 219.987 136.065C219.754 136.181 219.495 136.237 219.235 136.229L219.235 136.227Z" fill="#2F2E41"/>
<path d="M226.528 135.6C226.406 135.6 226.287 135.56 226.191 135.485C224.227 133.992 227.406 115.9 229.29 109.657C229.668 108.407 230.004 107.337 230.289 106.475C230.81 104.929 231.173 103.335 231.374 101.717C231.477 100.84 231.703 100.339 232.063 100.185C232.313 100.079 232.607 100.151 232.938 100.401C234.68 100.315 236.372 101.026 237.94 101.809L239.351 102.513L240.935 130.552C240.89 132.341 237.363 133.604 235.825 133.685C233.354 133.815 228.918 134.217 226.963 135.454C226.835 135.543 226.684 135.594 226.528 135.6L226.528 135.6Z" fill="#2F2E41"/>
<path d="M217.706 130.34C217.682 130.34 217.659 130.34 217.635 130.338L214.437 130.141C214.277 130.131 214.122 130.088 213.98 130.015C213.838 129.942 213.713 129.84 213.613 129.716C213.512 129.592 213.439 129.448 213.397 129.294C213.356 129.14 213.346 128.979 213.37 128.822L214.818 119.232L217.542 105.777C217.609 105.445 217.745 105.132 217.942 104.856C218.138 104.581 218.39 104.349 218.681 104.178C218.972 104.006 219.296 103.897 219.632 103.858C219.968 103.819 220.308 103.852 220.631 103.953V103.953C221.182 104.129 221.653 104.496 221.957 104.989C222.262 105.481 222.38 106.066 222.291 106.638L220.126 120.121L218.845 129.348C218.805 129.623 218.669 129.874 218.459 130.056C218.25 130.238 217.983 130.339 217.705 130.34H217.706Z" fill="#2F2E41"/>
<path d="M228.633 119.843C228.828 119.526 229.091 119.255 229.402 119.05C229.713 118.845 230.065 118.71 230.434 118.656C230.802 118.602 231.179 118.629 231.535 118.736C231.892 118.843 232.222 119.027 232.5 119.274L237.745 116.741L240.062 119.553L232.605 123.026C232.158 123.466 231.564 123.727 230.938 123.758C230.311 123.79 229.695 123.591 229.205 123.199C228.716 122.806 228.387 122.248 228.282 121.63C228.176 121.011 228.301 120.376 228.633 119.843V119.843Z" fill="#FFB8B8"/>
<path d="M235.919 122.564C235.661 122.564 235.41 122.477 235.207 122.317C235.004 122.157 234.861 121.934 234.801 121.683L234.04 118.516C233.982 118.278 234.001 118.027 234.096 117.801C234.191 117.575 234.356 117.386 234.567 117.261L239.161 114.511L236.812 105.912C236.609 105.176 236.702 104.389 237.072 103.72C237.441 103.052 238.058 102.555 238.79 102.335C239.521 102.115 240.31 102.191 240.986 102.546C241.663 102.9 242.174 103.505 242.41 104.232L245.003 112.149C245.321 113.114 245.324 114.155 245.01 115.122C244.696 116.088 244.082 116.93 243.258 117.523L236.592 122.346C236.397 122.487 236.161 122.564 235.919 122.564V122.564Z" fill="#2F2E41"/>
<path d="M186.284 42H57.659C56.457 42.0014 55.3046 42.4796 54.4546 43.3296C53.6046 44.1796 53.1264 45.332 53.125 46.534V60.3753C53.1264 61.5773 53.6046 62.7297 54.4546 63.5797C55.3046 64.4297 56.457 64.9078 57.659 64.9093H186.284C187.486 64.9078 188.639 64.4297 189.489 63.5797C190.339 62.7297 190.817 61.5773 190.818 60.3753V46.534C190.817 45.332 190.339 44.1796 189.489 43.3296C188.639 42.4796 187.486 42.0014 186.284 42ZM190.341 60.3753C190.339 61.4507 189.911 62.4816 189.151 63.242C188.391 64.0025 187.36 64.4304 186.284 64.432H57.659C56.5836 64.4304 55.5527 64.0025 54.7922 63.242C54.0318 62.4816 53.6039 61.4507 53.6023 60.3753V46.534C53.6039 45.4586 54.0318 44.4277 54.7922 43.6672C55.5527 42.9068 56.5836 42.4789 57.659 42.4773H186.284C187.36 42.4789 188.391 42.9068 189.151 43.6672C189.911 44.4277 190.339 45.4586 190.341 46.534V60.3753Z" fill="#3F3D56"/>
<path d="M186.284 97.6024H57.659C56.457 97.6009 55.3046 97.1228 54.4546 96.2728C53.6046 95.4228 53.1264 94.2704 53.125 93.0684V79.2274C53.1264 78.0253 53.6046 76.8729 54.4546 76.0229C55.3046 75.173 56.457 74.6948 57.659 74.6934H186.284C187.486 74.6948 188.639 75.173 189.489 76.0229C190.339 76.8729 190.817 78.0253 190.818 79.2274V93.0684C190.817 94.2704 190.339 95.4228 189.489 96.2728C188.639 97.1228 187.486 97.6009 186.284 97.6024ZM57.659 75.1707C56.5835 75.1719 55.5524 75.5997 54.7919 76.3602C54.0313 77.1207 53.6035 78.1519 53.6023 79.2274V93.0684C53.6033 94.144 54.031 95.1754 54.7916 95.9361C55.5521 96.6967 56.5833 97.1246 57.659 97.1259H186.284C187.36 97.1247 188.391 96.697 189.152 95.9364C189.912 95.1759 190.34 94.1448 190.341 93.0692V79.2274C190.34 78.1519 189.912 77.1207 189.152 76.3602C188.391 75.5997 187.36 75.1719 186.285 75.1707H57.659Z" fill="#CCCCCC"/>
<path d="M186.284 130.296H57.659C56.457 130.294 55.3046 129.816 54.4546 128.966C53.6046 128.116 53.1264 126.964 53.125 125.762V111.921C53.1264 110.719 53.6046 109.566 54.4546 108.716C55.3046 107.866 56.457 107.388 57.659 107.387H186.284C187.486 107.388 188.639 107.866 189.489 108.716C190.339 109.566 190.817 110.719 190.818 111.921V125.762C190.817 126.964 190.339 128.116 189.489 128.966C188.639 129.816 187.486 130.294 186.284 130.296ZM57.659 107.863C56.5835 107.864 55.5524 108.292 54.7919 109.052C54.0313 109.813 53.6035 110.844 53.6023 111.92V125.761C53.6035 126.836 54.0312 127.867 54.7918 128.628C55.5523 129.389 56.5834 129.816 57.659 129.818H186.284C187.36 129.816 188.391 129.389 189.152 128.628C189.912 127.868 190.34 126.836 190.341 125.761V111.921C190.34 110.845 189.913 109.814 189.152 109.053C188.391 108.292 187.36 107.864 186.284 107.863H57.659Z" fill="#CCCCCC"/>
<path d="M75.0391 61.3462C73.4783 61.3462 71.9525 60.8833 70.6548 60.0162C69.357 59.149 68.3455 57.9165 67.7482 56.4745C67.1509 55.0325 66.9947 53.4458 67.2992 51.915C67.6037 50.3842 68.3553 48.978 69.4589 47.8744C70.5626 46.7707 71.9687 46.0191 73.4995 45.7146C75.0304 45.4101 76.6171 45.5664 78.0591 46.1637C79.5011 46.761 80.7336 47.7725 81.6007 49.0702C82.4678 50.368 82.9307 51.8938 82.9307 53.4546C82.9307 55.5475 82.0993 57.5548 80.6193 59.0348C79.1393 60.5147 77.1321 61.3462 75.0391 61.3462Z" fill="#19944F"/>
<path d="M174.633 59.8974H90.3947C89.8883 59.8974 89.4028 59.6963 89.0447 59.3382C88.6867 58.9802 88.4855 58.4946 88.4855 57.9883C88.4855 57.4819 88.6867 56.9963 89.0447 56.6383C89.4028 56.2802 89.8883 56.0791 90.3947 56.0791H174.633C175.139 56.0791 175.625 56.2802 175.983 56.6383C176.341 56.9963 176.542 57.4819 176.542 57.9883C176.542 58.4946 176.341 58.9802 175.983 59.3382C175.625 59.6963 175.139 59.8974 174.633 59.8974V59.8974Z" fill="#CCCCCC"/>
<path d="M147.188 51.7839H90.3928C89.8865 51.7839 89.4009 51.5827 89.0428 51.2247C88.6848 50.8667 88.4836 50.3811 88.4836 49.8747C88.4836 49.3684 88.6848 48.8828 89.0428 48.5248C89.4009 48.1667 89.8865 47.9656 90.3928 47.9656H147.188C147.694 47.9656 148.18 48.1667 148.538 48.5248C148.896 48.8828 149.097 49.3684 149.097 49.8747C149.097 50.3811 148.896 50.8667 148.538 51.2247C148.18 51.5827 147.694 51.7839 147.188 51.7839V51.7839Z" fill="#CCCCCC"/>
<path d="M75.0391 94.0393C73.4783 94.0393 71.9525 93.5764 70.6548 92.7093C69.357 91.8422 68.3455 90.6097 67.7482 89.1677C67.1509 87.7257 66.9947 86.1389 67.2992 84.6081C67.6037 83.0773 68.3553 81.6712 69.4589 80.5675C70.5626 79.4638 71.9687 78.7122 73.4995 78.4077C75.0304 78.1032 76.6171 78.2595 78.0591 78.8568C79.5011 79.4541 80.7336 80.4656 81.6007 81.7634C82.4678 83.0611 82.9307 84.5869 82.9307 86.1477C82.9307 88.2407 82.0993 90.2479 80.6193 91.7279C79.1393 93.2078 77.1321 94.0393 75.0391 94.0393V94.0393Z" fill="#E6E6E6"/>
<path d="M174.633 92.5908H90.3947C89.8883 92.5908 89.4028 92.3896 89.0447 92.0316C88.6867 91.6736 88.4855 91.188 88.4855 90.6816C88.4855 90.1753 88.6867 89.6897 89.0447 89.3316C89.4028 88.9736 89.8883 88.7725 90.3947 88.7725H174.633C175.139 88.7725 175.625 88.9736 175.983 89.3316C176.341 89.6897 176.542 90.1753 176.542 90.6816C176.542 91.188 176.341 91.6736 175.983 92.0316C175.625 92.3896 175.139 92.5908 174.633 92.5908Z" fill="#E6E6E6"/>
<path d="M147.188 84.4772H90.3928C89.8865 84.4772 89.4009 84.2761 89.0428 83.9181C88.6848 83.56 88.4836 83.0744 88.4836 82.5681C88.4836 82.0617 88.6848 81.5761 89.0428 81.2181C89.4009 80.8601 89.8865 80.6589 90.3928 80.6589H147.188C147.694 80.6589 148.18 80.8601 148.538 81.2181C148.896 81.5761 149.097 82.0617 149.097 82.5681C149.097 83.0744 148.896 83.56 148.538 83.9181C148.18 84.2761 147.694 84.4772 147.188 84.4772V84.4772Z" fill="#E6E6E6"/>
<path d="M75.0391 126.733C73.4783 126.733 71.9525 126.27 70.6548 125.403C69.357 124.536 68.3455 123.303 67.7482 121.861C67.1509 120.419 66.9947 118.832 67.2992 117.301C67.6037 115.771 68.3553 114.365 69.4589 113.261C70.5626 112.157 71.9687 111.406 73.4995 111.101C75.0304 110.797 76.6171 110.953 78.0591 111.55C79.5011 112.147 80.7336 113.159 81.6007 114.457C82.4678 115.754 82.9307 117.28 82.9307 118.841C82.9307 120.934 82.0993 122.941 80.6193 124.421C79.1393 125.901 77.1321 126.733 75.0391 126.733V126.733Z" fill="#E6E6E6"/>
<path d="M174.633 125.284H90.3947C89.8883 125.284 89.4028 125.083 89.0447 124.725C88.6867 124.367 88.4855 123.882 88.4855 123.375C88.4855 122.869 88.6867 122.383 89.0447 122.025C89.4028 121.667 89.8883 121.466 90.3947 121.466H174.633C175.139 121.466 175.625 121.667 175.983 122.025C176.341 122.383 176.542 122.869 176.542 123.375C176.542 123.882 176.341 124.367 175.983 124.725C175.625 125.083 175.139 125.284 174.633 125.284Z" fill="#E6E6E6"/>
<path d="M147.188 117.171H90.3928C89.8865 117.171 89.4009 116.969 89.0428 116.611C88.6848 116.253 88.4836 115.768 88.4836 115.261C88.4836 114.755 88.6848 114.27 89.0428 113.911C89.4009 113.553 89.8865 113.352 90.3928 113.352H147.188C147.694 113.352 148.18 113.553 148.538 113.911C148.896 114.27 149.097 114.755 149.097 115.261C149.097 115.768 148.896 116.253 148.538 116.611C148.18 116.969 147.694 117.171 147.188 117.171V117.171Z" fill="#E6E6E6"/>
<path d="M74.6363 56.2304C74.4403 56.2308 74.2494 56.1675 74.0926 56.0499L74.0828 56.0426L72.0374 54.4779C71.9426 54.4053 71.8631 54.3148 71.8034 54.2114C71.7437 54.1081 71.7049 53.9939 71.6892 53.8756C71.6736 53.7573 71.6814 53.637 71.7123 53.5217C71.7431 53.4064 71.7964 53.2982 71.869 53.2035C71.9416 53.1088 72.0322 53.0293 72.1355 52.9695C72.2389 52.9098 72.353 52.871 72.4713 52.8554C72.5897 52.8397 72.7099 52.8475 72.8253 52.8784C72.9406 52.9092 73.0487 52.9625 73.1434 53.0351L74.4683 54.0512L77.5989 49.9668C77.7455 49.7756 77.9621 49.6505 78.2009 49.6189C78.4398 49.5874 78.6814 49.652 78.8726 49.7985V49.7985L78.8533 49.8257L78.8732 49.7985C79.0642 49.9454 79.1891 50.162 79.2206 50.4008C79.2521 50.6396 79.1876 50.8812 79.0412 51.0725L75.3588 55.8746C75.2735 55.985 75.1639 56.0743 75.0385 56.1356C74.9131 56.1969 74.7753 56.2285 74.6357 56.228L74.6363 56.2304Z" fill="white"/>
<path d="M256.074 184.979H202.253C202.181 184.979 202.112 184.951 202.061 184.9C202.01 184.849 201.981 184.779 201.981 184.707C201.981 184.635 202.01 184.566 202.061 184.515C202.112 184.464 202.181 184.436 202.253 184.436H256.074C256.146 184.436 256.215 184.464 256.266 184.515C256.317 184.566 256.346 184.635 256.346 184.707C256.346 184.779 256.317 184.849 256.266 184.9C256.215 184.951 256.146 184.979 256.074 184.979Z" fill="#CCCCCC"/>
<path d="M231.538 92.3851C231.538 92.3851 230.726 87.8928 228.877 88.4296C227.028 88.9663 222.271 89.5154 222.262 87.3998C222.253 85.2842 226.74 83.4143 229.386 83.6674C232.032 83.9205 236.53 84.6947 236.283 88.6625C236.084 91.1615 235.312 93.581 234.026 95.7326L231.538 92.3851Z" fill="#2F2E41"/>
</g>
<path d="M59.1011 30C59.1011 46.5685 45.8709 60 29.5506 60C13.2302 60 0 46.5685 0 30C0 13.4315 13.2302 0 29.5506 0C45.8709 0 59.1011 13.4315 59.1011 30Z" fill="#19944F"/>
<path d="M26.2344 27.1836H29.3399C30.2253 27.1836 30.9545 27.0273 31.5274 26.7148C32.1134 26.4023 32.543 25.9596 32.8165 25.3867C33.1029 24.8138 33.2462 24.1432 33.2462 23.375C33.2462 22.7109 33.116 22.1185 32.8555 21.5977C32.5951 21.0768 32.198 20.6667 31.6641 20.3672C31.1433 20.0547 30.4662 19.8984 29.6329 19.8984C29.0339 19.8984 28.461 20.0221 27.9141 20.2695C27.3803 20.5039 26.9441 20.849 26.6055 21.3047C26.267 21.7474 26.0977 22.2812 26.0977 22.9062H19.9844C19.9844 21.3177 20.4141 19.944 21.2735 18.7852C22.1459 17.6263 23.2983 16.7344 24.7305 16.1094C26.1759 15.4714 27.7514 15.1523 29.4571 15.1523C31.4233 15.1523 33.1485 15.4648 34.6329 16.0898C36.1303 16.7018 37.2891 17.6133 38.1094 18.8242C38.9428 20.0221 39.3594 21.5065 39.3594 23.2773C39.3594 24.2018 39.1381 25.0938 38.6954 25.9531C38.2657 26.7995 37.6472 27.5547 36.8399 28.2188C36.0456 28.8698 35.0951 29.3906 33.9884 29.7812C32.8946 30.1589 31.6772 30.3477 30.336 30.3477H26.2344V27.1836ZM26.2344 31.7734V28.668H30.336C31.8204 28.668 33.1485 28.8372 34.3204 29.1758C35.4923 29.5143 36.4884 30.0026 37.3087 30.6406C38.129 31.2786 38.754 32.0534 39.1837 32.9648C39.6134 33.8763 39.8282 34.8919 39.8282 36.0117C39.8282 37.3398 39.5678 38.5247 39.0469 39.5664C38.5261 40.6081 37.7969 41.487 36.8594 42.2031C35.9219 42.9193 34.8217 43.4661 33.5587 43.8438C32.2956 44.2083 30.9285 44.3906 29.4571 44.3906C28.2722 44.3906 27.0938 44.2279 25.9219 43.9023C24.7501 43.5768 23.6889 43.082 22.7384 42.418C21.7878 41.7409 21.0261 40.888 20.4532 39.8594C19.8803 38.8177 19.5938 37.5807 19.5938 36.1484H25.7071C25.7071 36.8125 25.8764 37.4115 26.2149 37.9453C26.5665 38.4661 27.0417 38.8828 27.6407 39.1953C28.2527 39.4948 28.9167 39.6445 29.6329 39.6445C30.4923 39.6445 31.2214 39.4883 31.8204 39.1758C32.4324 38.8503 32.8946 38.4076 33.2071 37.8477C33.5326 37.2878 33.6954 36.6432 33.6954 35.9141C33.6954 34.9245 33.5196 34.1302 33.168 33.5312C32.8295 32.9193 32.3347 32.4766 31.6837 32.2031C31.0326 31.9167 30.2514 31.7734 29.3399 31.7734H26.2344Z" fill="white"/>
<defs>
<clipPath id="clip0_402_9649">
<rect width="203.221" height="142.979" fill="white" transform="translate(53.125 42)"/>
</clipPath>
</defs>
</svg>
