<svg width="264" height="178" viewBox="0 0 264 178" fill="none" xmlns="http://www.w3.org/2000/svg">
<rect x="38.5" y="34.5" width="225" height="143" stroke="black"/>
<g clip-path="url(#clip0_402_9651)">
<path d="M162.326 48.5274C164.803 48.5274 166.811 46.5194 166.811 44.0424C166.811 41.5654 164.803 39.5574 162.326 39.5574C159.849 39.5574 157.841 41.5654 157.841 44.0424C157.841 46.5194 159.849 48.5274 162.326 48.5274Z" fill="#19944F"/>
<path d="M161.882 45.7536C161.781 45.7538 161.683 45.7212 161.602 45.6606L161.597 45.6569L160.543 44.8506C160.338 44.6932 160.299 44.3991 160.456 44.1938C160.614 43.9885 160.908 43.9497 161.113 44.1071L161.796 44.6306L163.409 42.5259C163.566 42.3207 163.86 42.2819 164.065 42.4392L164.065 42.4392L164.066 42.4393L164.055 42.4532L164.066 42.4393C164.271 42.5968 164.309 42.8906 164.152 43.0959L162.255 45.5704C162.166 45.686 162.028 45.7535 161.882 45.7531L161.882 45.7536V45.7536Z" fill="white"/>
<path d="M162.326 78.8477C164.803 78.8477 166.811 76.8397 166.811 74.3627C166.811 71.8857 164.803 69.8777 162.326 69.8777C159.849 69.8777 157.841 71.8857 157.841 74.3627C157.841 76.8397 159.849 78.8477 162.326 78.8477Z" fill="#19944F"/>
<path d="M161.882 76.0734C161.781 76.0736 161.683 76.041 161.602 75.9804L161.597 75.9767L160.543 75.1704C160.338 75.013 160.299 74.719 160.456 74.5136C160.614 74.3083 160.908 74.2695 161.113 74.4269L161.796 74.9504L163.409 72.8457C163.566 72.6405 163.86 72.6017 164.065 72.759L164.065 72.759L164.066 72.7591L164.055 72.773L164.066 72.7591C164.271 72.9167 164.309 73.2104 164.152 73.4157L162.255 75.8902C162.166 76.0058 162.028 76.0733 161.882 76.0729L161.882 76.0734V76.0734Z" fill="white"/>
<path d="M173.59 121.491C173.535 120.086 174.629 118.903 176.033 118.848C176.183 118.842 176.333 118.849 176.482 118.87L180.589 110.811L182.91 114.898L178.654 121.925C178.368 123.309 177.014 124.199 175.63 123.914C174.472 123.675 173.628 122.673 173.59 121.491L173.59 121.491V121.491Z" fill="#FFB7B7"/>
<path d="M192.74 172.238L189.516 172.237L187.983 159.804L192.741 159.804L192.74 172.238Z" fill="#FFB7B7"/>
<path d="M193.562 175.363L183.168 175.362V175.231C183.168 172.996 184.979 171.185 187.214 171.185H187.214L193.562 171.185L193.562 175.363V175.363Z" fill="#2F2E41"/>
<path d="M210.215 172.238L206.991 172.237L205.458 159.804L210.215 159.804L210.215 172.238Z" fill="#FFB7B7"/>
<path d="M211.037 175.363L200.643 175.362V175.231C200.643 172.996 202.454 171.185 204.689 171.185H204.689L211.037 171.185L211.037 175.363V175.363Z" fill="#2F2E41"/>
<path d="M178.541 114.477L177.134 116.822C177.134 116.822 179.479 116.822 179.948 120.34L181.825 117.995L178.541 114.477V114.477Z" fill="#E5E5E5"/>
<path d="M203.168 109.552C203.168 109.552 206.921 119.402 207.624 125.501C208.328 131.599 209.5 147.782 209.5 147.782L211.846 168.656L205.279 169.594L202.464 148.486L196.132 127.611L194.724 148.486L193.552 167.483L187.454 167.718L186.984 148.016L184.405 122.921L185.812 110.959L203.168 109.552V109.552Z" fill="#2F2E41"/>
<path d="M198.594 79.6477L200.94 81.2892L203.989 112.014L184.991 112.483L187.571 91.1402L189.916 85.0421L191.609 82.8038L198.594 79.6477Z" fill="#E5E5E5"/>
<path d="M199.063 101.694L199.781 80.4783C199.781 80.4783 201.174 80.5857 201.643 81.2893C202.112 81.993 209.852 83.4002 209.852 83.4002L208.445 105.213C208.445 105.213 214.309 122.569 212.198 123.507C210.087 124.445 206.334 124.21 206.334 124.21L199.063 101.694V101.694Z" fill="#2F2E41"/>
<path d="M187.688 98.9971L190.176 84.6982L184.639 88.4427L186.046 98.7626L184.874 105.799C184.874 105.799 180.417 125.266 181.825 125.969C183.232 126.673 184.874 125.969 184.874 125.969L187.688 106.268V98.9971V98.9971Z" fill="#2F2E41"/>
<path d="M186.281 87.9739L184.639 88.443L183.935 97.8246L182.763 106.034L177.134 116.119C177.134 116.119 179.948 114.243 181.121 119.637L187.32 108.844L186.281 87.9739Z" fill="#2F2E41"/>
<path d="M199.038 119.568C199.257 118.179 200.56 117.23 201.949 117.449C202.097 117.472 202.243 117.509 202.384 117.558L207.978 110.449L209.462 114.91L203.922 120.976C203.373 122.279 201.872 122.889 200.57 122.34C199.48 121.881 198.847 120.735 199.038 119.568V119.568Z" fill="#FFB7B7"/>
<path d="M208.562 117.057L206.451 119.637L203.637 114.712L204.809 112.601L208.562 117.057Z" fill="#E5E5E5"/>
<path d="M208.093 84.2211L209.97 83.283C209.97 83.283 211.377 85.1593 211.611 86.8011C211.846 88.4429 213.019 90.5537 213.019 91.7264C213.019 92.8991 216.302 103.923 216.302 103.923L208.797 119.168C208.797 119.168 207.155 113.539 203.637 113.07L209.5 104.861L206.217 98.9972L208.093 84.2211V84.2211Z" fill="#2F2E41"/>
<path d="M248.692 175.507H158.443C158.312 175.507 158.206 175.401 158.206 175.27C158.206 175.139 158.312 175.033 158.443 175.033H248.692C248.823 175.033 248.929 175.139 248.929 175.27C248.929 175.401 248.823 175.507 248.692 175.507V175.507Z" fill="#CBCBCB"/>
<path d="M145.434 84.3113H58.9745V64.4138H145.434V84.3113Z" fill="white"/>
<path d="M71.4525 70.9929C70.9873 70.9929 70.6101 71.3701 70.6101 71.8353C70.6101 72.3006 70.9873 72.6778 71.4525 72.6778H132.959C133.425 72.6778 133.802 72.3006 133.802 71.8353C133.802 71.3701 133.425 70.9929 132.959 70.9929H71.4525Z" fill="#19944F"/>
<path d="M71.4526 76.0474C70.9873 76.0464 70.6094 76.4228 70.6084 76.888C70.6074 77.3533 70.9838 77.7312 71.449 77.7322H110.334C110.799 77.7322 111.177 77.355 111.177 76.8898C111.177 76.4245 110.799 76.0474 110.334 76.0474H71.4526V76.0474Z" fill="#19944F"/>
<path d="M145.434 84.3113H58.9745V64.4138H145.434V84.3113ZM60.3958 82.89H144.013V65.8351H60.3958V82.89Z" fill="#E5E5E5"/>
<path d="M145.434 114.631H58.9745V94.7339H145.434V114.631Z" fill="white"/>
<path d="M71.4525 101.313C70.9873 101.313 70.6101 101.69 70.6101 102.155C70.6101 102.62 70.9873 102.998 71.4525 102.998H132.959C133.425 102.998 133.802 102.62 133.802 102.155C133.802 101.69 133.425 101.313 132.959 101.313H71.4525Z" fill="#E6E6E6"/>
<path d="M71.4526 106.367C70.9873 106.366 70.6094 106.743 70.6084 107.208C70.6074 107.673 70.9838 108.051 71.449 108.052H110.334C110.799 108.052 111.177 107.675 111.177 107.21C111.177 106.745 110.799 106.367 110.334 106.367H71.4526V106.367Z" fill="#E6E6E6"/>
<path d="M145.434 114.631H58.9745V94.7339H145.434V114.631ZM60.3958 113.21H144.013V96.1551H60.3958V113.21Z" fill="#E5E5E5"/>
<path d="M146.144 53.9915H59.6851V34.094H146.144V53.9915Z" fill="white"/>
<path d="M72.1632 40.6731C71.698 40.6739 71.3215 41.0518 71.3223 41.5171C71.3232 41.9811 71.6992 42.3571 72.1632 42.3579H133.67C134.135 42.3571 134.512 41.9792 134.511 41.514C134.51 41.0499 134.134 40.6739 133.67 40.6731H72.1632V40.6731Z" fill="#19944F"/>
<path d="M72.1632 45.7273C71.6979 45.7263 71.3199 46.1027 71.319 46.5679C71.318 47.0332 71.6944 47.4112 72.1596 47.4121H111.045C111.51 47.413 111.888 47.0365 111.889 46.5713C111.89 46.106 111.513 45.7281 111.048 45.7273C111.047 45.7273 111.046 45.7273 111.045 45.7273H72.1632V45.7273Z" fill="#19944F"/>
<path d="M146.144 53.9915H59.6851V34.094H146.144V53.9915ZM61.1064 52.5702H144.723V35.5152H61.1064V52.5702Z" fill="#E5E5E5"/>
<path d="M234.084 175.616V158.481C234.084 158.481 240.762 170.629 234.084 175.616Z" fill="#F1F1F1"/>
<path d="M234.496 175.613L221.873 164.025C221.873 164.025 235.338 167.321 234.496 175.613Z" fill="#F1F1F1"/>
<path d="M173.696 120.975C176.173 120.975 178.181 118.967 178.181 116.49C178.181 114.013 176.173 112.005 173.696 112.005C171.219 112.005 169.211 114.013 169.211 116.49C169.211 118.967 171.219 120.975 173.696 120.975Z" fill="#19944F"/>
<path d="M173.252 118.201C173.151 118.201 173.053 118.168 172.972 118.108L172.967 118.104L171.913 117.298C171.708 117.14 171.669 116.846 171.826 116.641C171.984 116.436 172.278 116.397 172.483 116.554L173.166 117.078L174.779 114.973C174.936 114.768 175.23 114.729 175.435 114.886L175.436 114.886L175.426 114.9L175.436 114.886C175.641 115.044 175.68 115.338 175.522 115.543L173.625 118.017C173.536 118.133 173.398 118.201 173.252 118.2L173.252 118.201V118.201Z" fill="white"/>
<path d="M192 80.0366C195.546 80.0366 198.42 77.1622 198.42 73.6165C198.42 70.0709 195.546 67.1965 192 67.1965C188.455 67.1965 185.58 70.0709 185.58 73.6165C185.58 77.1622 188.455 80.0366 192 80.0366Z" fill="#FFB6B6"/>
<path d="M197.608 78.5492C197.608 78.5492 199.51 74.6982 199.476 73.228C199.442 71.7578 198.403 67.9745 197.965 67.725C197.526 67.4756 192.799 65.0751 191.517 65.7969C190.236 66.5186 187.981 68.9872 185.549 69.655C184.861 69.8439 185.462 73.3777 185.462 73.3777L188.308 72.966C188.308 72.966 191.275 70.3019 191.403 72.116C191.532 73.9301 194.283 73.1745 194.283 73.1745L194.317 74.6447L195.443 74.7053L195.753 73.1407C195.753 73.1407 196.259 76.3306 195.605 77.9896C194.951 79.6487 197.608 78.5492 197.608 78.5492V78.5492Z" fill="#2F2E41"/>
</g>
<path d="M60 30C60 46.5685 46.5685 60 30 60C13.4315 60 0 46.5685 0 30C0 13.4315 13.4315 0 30 0C46.5685 0 60 13.4315 60 30Z" fill="#19944F"/>
<path d="M41.4609 38.2539V43H21.8125V38.9766L30.9922 29.25C31.8516 28.2604 32.5352 27.388 33.043 26.6328C33.5638 25.8776 33.9414 25.194 34.1758 24.582C34.4102 23.957 34.5273 23.3841 34.5273 22.8633C34.5273 22.0169 34.3906 21.3008 34.1172 20.7148C33.8568 20.1289 33.4727 19.6797 32.9648 19.3672C32.457 19.0547 31.8385 18.8984 31.1094 18.8984C30.3281 18.8984 29.6576 19.1003 29.0977 19.5039C28.5378 19.9076 28.1081 20.4674 27.8086 21.1836C27.5091 21.8867 27.3594 22.6875 27.3594 23.5859H21.2266C21.2266 21.8542 21.6432 20.2786 22.4766 18.8594C23.3099 17.4271 24.4753 16.2878 25.9727 15.4414C27.4701 14.582 29.2214 14.1523 31.2266 14.1523C33.2839 14.1523 35.0091 14.4779 36.4023 15.1289C37.7956 15.7799 38.8503 16.7109 39.5664 17.9219C40.2826 19.1328 40.6406 20.5911 40.6406 22.2969C40.6406 23.2604 40.4844 24.1914 40.1719 25.0898C39.8724 25.9883 39.4362 26.8802 38.8633 27.7656C38.2904 28.651 37.6003 29.556 36.793 30.4805C35.9857 31.3919 35.0742 32.3555 34.0586 33.3711L29.7617 38.2539H41.4609Z" fill="white"/>
<defs>
<clipPath id="clip0_402_9651">
<rect width="189.955" height="141.523" fill="white" transform="translate(58.9745 34.094)"/>
</clipPath>
</defs>
</svg>
