<svg width="219" height="64" viewBox="0 0 219 64" fill="none" xmlns="http://www.w3.org/2000/svg">
<rect y="0.941177" width="218.527" height="63.0588" rx="20" fill="#19944F"/>
<path d="M85.2773 34.2832H88.1973C88.1387 35.2402 87.875 36.0898 87.4062 36.832C86.944 37.5742 86.2962 38.1536 85.4629 38.5703C84.6361 38.987 83.64 39.1953 82.4746 39.1953C81.5632 39.1953 80.7461 39.0391 80.0234 38.7266C79.3008 38.4076 78.6823 37.9518 78.168 37.3594C77.6602 36.7669 77.2728 36.0508 77.0059 35.2109C76.7389 34.3711 76.6055 33.4303 76.6055 32.3887V31.4023C76.6055 30.3607 76.7422 29.4199 77.0156 28.5801C77.2956 27.7337 77.6927 27.0143 78.207 26.4219C78.7279 25.8294 79.3496 25.3737 80.0723 25.0547C80.7949 24.7357 81.6022 24.5762 82.4941 24.5762C83.679 24.5762 84.6784 24.791 85.4922 25.2207C86.3125 25.6504 86.9473 26.2428 87.3965 26.998C87.8522 27.7533 88.1257 28.6126 88.2168 29.5762H85.2871C85.2546 29.0033 85.1406 28.5182 84.9453 28.1211C84.75 27.7174 84.4538 27.4147 84.0566 27.2129C83.666 27.0046 83.1452 26.9004 82.4941 26.9004C82.0059 26.9004 81.5794 26.9915 81.2148 27.1738C80.8503 27.3561 80.5443 27.6328 80.2969 28.0039C80.0495 28.375 79.8639 28.8438 79.7402 29.4102C79.623 29.9701 79.5645 30.6276 79.5645 31.3828V32.3887C79.5645 33.1243 79.6198 33.7721 79.7305 34.332C79.8411 34.8854 80.0104 35.3542 80.2383 35.7383C80.4727 36.1159 80.7721 36.4023 81.1367 36.5977C81.5078 36.7865 81.9538 36.8809 82.4746 36.8809C83.0866 36.8809 83.5911 36.7832 83.9883 36.5879C84.3854 36.3926 84.6882 36.1029 84.8965 35.7188C85.1113 35.3346 85.2383 34.8561 85.2773 34.2832ZM101.801 31.5586V32.2324C101.801 33.3132 101.654 34.2832 101.361 35.1426C101.068 36.002 100.655 36.7344 100.121 37.3398C99.5872 37.9388 98.9492 38.3978 98.207 38.7168C97.4714 39.0358 96.6543 39.1953 95.7559 39.1953C94.8639 39.1953 94.0469 39.0358 93.3047 38.7168C92.569 38.3978 91.931 37.9388 91.3906 37.3398C90.8503 36.7344 90.4303 36.002 90.1309 35.1426C89.8379 34.2832 89.6914 33.3132 89.6914 32.2324V31.5586C89.6914 30.4714 89.8379 29.5013 90.1309 28.6484C90.4238 27.7891 90.8372 27.0566 91.3711 26.4512C91.9115 25.8457 92.5495 25.3835 93.2852 25.0645C94.0273 24.7454 94.8444 24.5859 95.7363 24.5859C96.6348 24.5859 97.4518 24.7454 98.1875 25.0645C98.9297 25.3835 99.5677 25.8457 100.102 26.4512C100.642 27.0566 101.059 27.7891 101.352 28.6484C101.651 29.5013 101.801 30.4714 101.801 31.5586ZM98.8418 32.2324V31.5391C98.8418 30.7839 98.7734 30.1198 98.6367 29.5469C98.5 28.974 98.2982 28.4922 98.0312 28.1016C97.7643 27.7109 97.4388 27.418 97.0547 27.2227C96.6706 27.0208 96.2311 26.9199 95.7363 26.9199C95.2415 26.9199 94.8021 27.0208 94.418 27.2227C94.0404 27.418 93.7181 27.7109 93.4512 28.1016C93.1908 28.4922 92.9922 28.974 92.8555 29.5469C92.7188 30.1198 92.6504 30.7839 92.6504 31.5391V32.2324C92.6504 32.9811 92.7188 33.6452 92.8555 34.2246C92.9922 34.7975 93.194 35.2826 93.4609 35.6797C93.7279 36.0703 94.0534 36.3665 94.4375 36.5684C94.8216 36.7702 95.2611 36.8711 95.7559 36.8711C96.2507 36.8711 96.6901 36.7702 97.0742 36.5684C97.4583 36.3665 97.7806 36.0703 98.041 35.6797C98.3014 35.2826 98.5 34.7975 98.6367 34.2246C98.7734 33.6452 98.8418 32.9811 98.8418 32.2324ZM115.482 24.7812V39H112.553L106.84 29.4688V39H103.91V24.7812H106.84L112.562 34.3223V24.7812H115.482ZM124.096 24.7812V39H121.176V24.7812H124.096ZM128.471 24.7812V27.0762H116.869V24.7812H128.471ZM134.867 27.2129L131 39H127.885L133.168 24.7812H135.15L134.867 27.2129ZM138.08 39L134.203 27.2129L133.891 24.7812H135.893L141.205 39H138.08ZM137.904 33.707V36.002H130.395V33.707H137.904ZM150.59 34.2832H153.51C153.451 35.2402 153.188 36.0898 152.719 36.832C152.257 37.5742 151.609 38.1536 150.775 38.5703C149.949 38.987 148.952 39.1953 147.787 39.1953C146.876 39.1953 146.059 39.0391 145.336 38.7266C144.613 38.4076 143.995 37.9518 143.48 37.3594C142.973 36.7669 142.585 36.0508 142.318 35.2109C142.051 34.3711 141.918 33.4303 141.918 32.3887V31.4023C141.918 30.3607 142.055 29.4199 142.328 28.5801C142.608 27.7337 143.005 27.0143 143.52 26.4219C144.04 25.8294 144.662 25.3737 145.385 25.0547C146.107 24.7357 146.915 24.5762 147.807 24.5762C148.992 24.5762 149.991 24.791 150.805 25.2207C151.625 25.6504 152.26 26.2428 152.709 26.998C153.165 27.7533 153.438 28.6126 153.529 29.5762H150.6C150.567 29.0033 150.453 28.5182 150.258 28.1211C150.062 27.7174 149.766 27.4147 149.369 27.2129C148.979 27.0046 148.458 26.9004 147.807 26.9004C147.318 26.9004 146.892 26.9915 146.527 27.1738C146.163 27.3561 145.857 27.6328 145.609 28.0039C145.362 28.375 145.176 28.8438 145.053 29.4102C144.936 29.9701 144.877 30.6276 144.877 31.3828V32.3887C144.877 33.1243 144.932 33.7721 145.043 34.332C145.154 34.8854 145.323 35.3542 145.551 35.7383C145.785 36.1159 146.085 36.4023 146.449 36.5977C146.82 36.7865 147.266 36.8809 147.787 36.8809C148.399 36.8809 148.904 36.7832 149.301 36.5879C149.698 36.3926 150.001 36.1029 150.209 35.7188C150.424 35.3346 150.551 34.8561 150.59 34.2832ZM161.498 24.7812V39H158.578V24.7812H161.498ZM165.873 24.7812V27.0762H154.271V24.7812H165.873ZM179.848 24.7812H182.768V34.1758C182.768 35.2695 182.533 36.1908 182.064 36.9395C181.602 37.6882 180.961 38.2513 180.141 38.6289C179.327 39.0065 178.389 39.1953 177.328 39.1953C176.267 39.1953 175.323 39.0065 174.496 38.6289C173.676 38.2513 173.031 37.6882 172.562 36.9395C172.1 36.1908 171.869 35.2695 171.869 34.1758V24.7812H174.799V34.1758C174.799 34.8138 174.9 35.3346 175.102 35.7383C175.303 36.1419 175.593 36.4382 175.971 36.627C176.355 36.8158 176.807 36.9102 177.328 36.9102C177.862 36.9102 178.314 36.8158 178.686 36.627C179.063 36.4382 179.35 36.1419 179.545 35.7383C179.747 35.3346 179.848 34.8138 179.848 34.1758V24.7812ZM192.582 35.2793C192.582 35.0254 192.543 34.7975 192.465 34.5957C192.393 34.3874 192.257 34.1986 192.055 34.0293C191.853 33.8535 191.57 33.681 191.205 33.5117C190.84 33.3424 190.368 33.1667 189.789 32.9844C189.145 32.776 188.533 32.5417 187.953 32.2812C187.38 32.0208 186.872 31.7181 186.43 31.373C185.993 31.0215 185.648 30.6146 185.395 30.1523C185.147 29.6901 185.023 29.153 185.023 28.541C185.023 27.9486 185.154 27.4115 185.414 26.9297C185.674 26.4414 186.039 26.0247 186.508 25.6797C186.977 25.3281 187.53 25.0579 188.168 24.8691C188.812 24.6803 189.519 24.5859 190.287 24.5859C191.335 24.5859 192.25 24.7747 193.031 25.1523C193.812 25.5299 194.418 26.0475 194.848 26.7051C195.284 27.3626 195.502 28.1146 195.502 28.9609H192.592C192.592 28.5443 192.504 28.1797 192.328 27.8672C192.159 27.5482 191.898 27.2975 191.547 27.1152C191.202 26.9329 190.766 26.8418 190.238 26.8418C189.73 26.8418 189.307 26.9199 188.969 27.0762C188.63 27.2259 188.376 27.431 188.207 27.6914C188.038 27.9453 187.953 28.2318 187.953 28.5508C187.953 28.7917 188.012 29.0098 188.129 29.2051C188.253 29.4004 188.435 29.5827 188.676 29.752C188.917 29.9212 189.213 30.0807 189.564 30.2305C189.916 30.3802 190.323 30.5267 190.785 30.6699C191.56 30.9043 192.24 31.168 192.826 31.4609C193.419 31.7539 193.913 32.0827 194.311 32.4473C194.708 32.8118 195.007 33.2253 195.209 33.6875C195.411 34.1497 195.512 34.6738 195.512 35.2598C195.512 35.8783 195.391 36.4316 195.15 36.9199C194.91 37.4082 194.561 37.8216 194.105 38.1602C193.65 38.4987 193.106 38.7559 192.475 38.9316C191.843 39.1074 191.137 39.1953 190.355 39.1953C189.652 39.1953 188.959 39.1042 188.275 38.9219C187.592 38.7331 186.97 38.4499 186.41 38.0723C185.857 37.6947 185.414 37.2129 185.082 36.627C184.75 36.041 184.584 35.3477 184.584 34.5469H187.523C187.523 34.9896 187.592 35.3639 187.729 35.6699C187.865 35.9759 188.057 36.2233 188.305 36.4121C188.559 36.6009 188.858 36.7376 189.203 36.8223C189.555 36.9069 189.939 36.9492 190.355 36.9492C190.863 36.9492 191.28 36.8776 191.605 36.7344C191.938 36.5911 192.182 36.3926 192.338 36.1387C192.501 35.8848 192.582 35.5983 192.582 35.2793Z" fill="white"/>
<mask id="mask0_57_8799" style="mask-type:alpha" maskUnits="userSpaceOnUse" x="26" y="17" width="30" height="30">
<path fill-rule="evenodd" clip-rule="evenodd" d="M30.8483 24.3483C29.75 25.4467 29.75 27.2145 29.75 30.75V33.25C29.75 36.7855 29.75 38.5533 30.8483 39.6517C31.9467 40.75 33.7145 40.75 37.25 40.75H44.75C48.2855 40.75 50.0533 40.75 51.1517 39.6517C52.25 38.5533 52.25 36.7855 52.25 33.25V30.75C52.25 27.2145 52.25 25.4467 51.1517 24.3483C50.0533 23.25 48.2855 23.25 44.75 23.25H37.25C33.7145 23.25 31.9467 23.25 30.8483 24.3483ZM49.1934 29.2901C49.7678 28.9071 49.923 28.131 49.5401 27.5566C49.1571 26.9822 48.381 26.827 47.8066 27.2099L41 31.7477L34.1934 27.2099C33.619 26.827 32.8429 26.9822 32.4599 27.5566C32.077 28.131 32.2322 28.9071 32.8066 29.2901L39.6133 33.8278C40.453 34.3876 41.547 34.3876 42.3868 33.8278L49.1934 29.2901Z" fill="#222222"/>
</mask>
<g mask="url(#mask0_57_8799)">
<rect x="21" y="15.75" width="41.25" height="36.25" fill="white"/>
</g>
</svg>
